<svg width="36" height="75" viewBox="0 0 36 75" fill="none" xmlns="http://www.w3.org/2000/svg">
<mask id="mask0_1_1290" style="mask-type:luminance" maskUnits="userSpaceOnUse" x="0" y="0" width="36" height="75">
<path d="M35.0917 0H0V75H35.0917V0Z" fill="white"/>
</mask>
<g mask="url(#mask0_1_1290)">
<path d="M27.9082 49.8221C30.1221 48.5275 31.9255 49.5667 31.9329 52.1433L31.9626 62.3021L10.8422 74.6443L10.8125 64.4856C10.8051 61.909 12.5936 58.7714 14.81 57.4769L27.9082 49.8221Z" fill="white"/>
<path d="M28.4202 49.562C28.4424 49.552 28.4647 49.542 28.487 49.532C28.5463 49.5069 28.6057 49.4844 28.6626 49.4643C28.6774 49.4593 28.6923 49.4518 28.7071 49.4468C28.7789 49.4218 28.8531 49.3992 28.9223 49.3792C28.9644 49.3667 29.0064 49.3567 29.0485 49.3467C29.0683 49.3417 29.0881 49.3366 29.1054 49.3316C29.1672 49.3191 29.2266 49.3066 29.286 49.2966C29.3775 49.2816 29.4665 49.274 29.5531 49.269C29.5704 49.269 29.5878 49.269 29.6075 49.2665C29.6867 49.264 29.7634 49.264 29.8401 49.2665C29.8524 49.2665 29.8673 49.269 29.8797 49.269C29.9415 49.274 30.0009 49.2816 30.0602 49.2916C30.0776 49.2941 30.0973 49.2966 30.1147 49.3016C30.1839 49.3141 30.2507 49.3291 30.315 49.3492C30.3175 49.3492 30.3224 49.3492 30.3249 49.3517C30.3868 49.3692 30.4461 49.3917 30.5055 49.4168C30.5228 49.4243 30.5401 49.4318 30.5574 49.4393C30.6069 49.4618 30.6564 49.4869 30.7059 49.5119C30.7207 49.5219 30.738 49.5295 30.7553 49.537L22.4141 44.6291C22.4141 44.6291 22.3992 44.6216 22.3918 44.6166C22.3844 44.6116 22.3745 44.6091 22.3646 44.6041C22.3176 44.5765 22.2681 44.554 22.2162 44.5315C22.2063 44.5264 22.1989 44.5214 22.189 44.5189C22.1815 44.5164 22.1741 44.5139 22.1642 44.5114C22.1049 44.4864 22.0455 44.4664 21.9836 44.4463C21.9812 44.4463 21.9787 44.4463 21.9762 44.4438C21.9119 44.4238 21.8451 44.4088 21.7759 44.3962C21.7684 44.3962 21.761 44.3912 21.7536 44.3912C21.7437 44.3912 21.7313 44.3912 21.7214 44.3862C21.6621 44.3762 21.6027 44.3687 21.5409 44.3637C21.531 44.3637 21.5211 44.3612 21.5112 44.3612C21.5087 44.3612 21.5037 44.3612 21.5013 44.3612C21.4246 44.3562 21.3479 44.3562 21.2687 44.3612C21.2613 44.3612 21.2539 44.3612 21.2465 44.3612C21.2366 44.3612 21.2267 44.3637 21.2168 44.3637C21.1277 44.3687 21.0412 44.3762 20.9496 44.3912C20.8903 44.4012 20.8309 44.4113 20.7691 44.4263C20.7493 44.4313 20.732 44.4363 20.7122 44.4413C20.6726 44.4513 20.6355 44.4588 20.5959 44.4689C20.5934 44.4689 20.5885 44.4689 20.5835 44.4714C20.5118 44.4914 20.4401 44.5139 20.3683 44.539C20.3535 44.544 20.3386 44.5515 20.3238 44.5565C20.2644 44.5765 20.2075 44.5991 20.1482 44.6241C20.1407 44.6266 20.1333 44.6291 20.1234 44.6341C20.1086 44.6391 20.0937 44.6491 20.0789 44.6542C20.0171 44.6817 19.9527 44.7117 19.8884 44.7418C19.8637 44.7543 19.839 44.7643 19.8167 44.7768C19.7326 44.8194 19.6485 44.8645 19.5619 44.9146L6.46376 52.5693C6.33513 52.6444 6.2065 52.7271 6.08034 52.8147C6.03829 52.8423 5.99871 52.8748 5.95913 52.9049C5.87502 52.9675 5.79092 53.0301 5.70681 53.0977C5.65981 53.1352 5.61529 53.1728 5.57076 53.2128C5.49408 53.2779 5.41739 53.3456 5.34318 53.4132C5.29865 53.4557 5.25165 53.4983 5.20713 53.5409C5.17992 53.5684 5.15023 53.5935 5.12302 53.621C5.04881 53.6936 4.97707 53.7687 4.90781 53.8464C4.90781 53.8464 4.90534 53.8489 4.90286 53.8514C4.82865 53.9315 4.75692 54.0116 4.68518 54.0943C4.66292 54.1218 4.64065 54.1493 4.61839 54.1769C4.56644 54.2395 4.51449 54.3046 4.46255 54.3697C4.42792 54.4123 4.39328 54.4523 4.36113 54.4949C4.33392 54.53 4.30918 54.5675 4.28197 54.6026C4.24486 54.6526 4.20776 54.7052 4.17065 54.7553C4.14592 54.7904 4.1187 54.8254 4.09397 54.8605C4.05191 54.9206 4.01234 54.9832 3.97276 55.0458C3.94802 55.0858 3.92081 55.1234 3.89607 55.1635C3.88618 55.181 3.87381 55.196 3.86391 55.2135C3.79218 55.3262 3.72291 55.4414 3.65612 55.5566C3.65118 55.5641 3.6487 55.5716 3.64376 55.5791C3.63139 55.6017 3.61902 55.6267 3.60418 55.6492C3.55718 55.7319 3.51265 55.8145 3.46812 55.8971C3.44833 55.9372 3.42855 55.9748 3.40876 56.0148C3.38897 56.0549 3.3667 56.095 3.34691 56.1375C3.3296 56.1726 3.30981 56.2076 3.29249 56.2427C3.24797 56.3378 3.20344 56.433 3.16139 56.5307C3.15397 56.5482 3.14654 56.5657 3.13912 56.5807C3.13912 56.5857 3.13418 56.5908 3.1317 56.5958C3.07976 56.716 3.03028 56.8386 2.98576 56.9588C2.97833 56.9814 2.97091 57.0039 2.96102 57.0264C2.9437 57.0715 2.92886 57.1166 2.91402 57.1592C2.89176 57.2193 2.86949 57.2794 2.8497 57.342C2.83486 57.3895 2.82249 57.4371 2.80765 57.4847C2.79033 57.5398 2.77302 57.5974 2.75818 57.6525C2.74828 57.6875 2.73591 57.7201 2.72602 57.7551C2.7087 57.8177 2.69633 57.8803 2.68149 57.9404C2.66418 58.0105 2.64686 58.0781 2.63202 58.1482C2.62707 58.1733 2.61965 58.1958 2.6147 58.2209C2.58997 58.336 2.57018 58.4487 2.55286 58.5614C2.54791 58.5839 2.54544 58.609 2.54296 58.6315C2.53554 58.6816 2.52565 58.7317 2.5207 58.7818C2.51081 58.8494 2.50833 58.917 2.50091 58.9846C2.49596 59.0322 2.49102 59.0797 2.48607 59.1273C2.4737 59.2775 2.46875 59.4278 2.46875 59.5755L2.49844 69.7343L10.8397 74.6421L10.81 64.4834C10.81 64.3356 10.8174 64.1854 10.8273 64.0352C10.8298 63.9876 10.8372 63.94 10.8421 63.8924C10.8545 63.7747 10.8669 63.6571 10.8842 63.5394C10.8867 63.5168 10.8916 63.4918 10.8941 63.4693C10.9164 63.3315 10.9436 63.1938 10.9733 63.0561C10.9881 62.986 11.0054 62.9184 11.0227 62.8483C11.0475 62.7506 11.0722 62.6555 11.0994 62.5578C11.1167 62.5027 11.1316 62.4451 11.1489 62.39C11.1835 62.2824 11.2181 62.1722 11.2577 62.0645C11.2726 62.0194 11.2874 61.9744 11.3047 61.9318C11.3592 61.7816 11.4185 61.6338 11.4828 61.4861C11.4903 61.4686 11.4977 61.4535 11.5051 61.436C11.562 61.3033 11.6238 61.1731 11.6882 61.0404C11.7079 61.0003 11.7277 60.9577 11.75 60.9177C11.8118 60.795 11.8762 60.6723 11.9454 60.5521C11.9578 60.5296 11.9702 60.5045 11.985 60.482C12.0666 60.3417 12.1507 60.204 12.2373 60.0663C12.262 60.0262 12.2893 59.9887 12.314 59.9486C12.3783 59.851 12.4451 59.7533 12.5119 59.6582C12.549 59.6056 12.5861 59.5555 12.6232 59.5054C12.6826 59.4253 12.7419 59.3477 12.8038 59.2725C12.8557 59.2074 12.9077 59.1423 12.9596 59.0797C13.0536 58.9696 13.1476 58.8594 13.2441 58.7542C13.2441 58.7542 13.2466 58.7517 13.249 58.7492C13.348 58.644 13.4494 58.5439 13.5508 58.4437C13.5954 58.4011 13.6399 58.3586 13.6869 58.316C13.7611 58.2459 13.8378 58.1808 13.9145 58.1157C13.959 58.0781 14.006 58.0381 14.0505 58.0005C14.1346 57.9329 14.2187 57.8703 14.3028 57.8077C14.3424 57.7776 14.382 57.7476 14.4241 57.7176C14.5502 57.6299 14.6764 57.5473 14.8075 57.4722L27.9057 49.8174C27.9898 49.7673 28.0763 49.7223 28.1604 49.6797C28.1852 49.6672 28.2099 49.6547 28.2322 49.6446C28.2965 49.6121 28.3608 49.5845 28.4227 49.557L28.4202 49.562Z" fill="#035BE8"/>
<path d="M15.7575 46.5017C15.7699 46.3239 15.7872 46.1461 15.8095 45.9684C15.8144 45.9183 15.8243 45.8682 15.8293 45.8206C15.8417 45.738 15.854 45.6528 15.8664 45.5702C15.8763 45.5126 15.8862 45.4575 15.8961 45.3999C15.9109 45.3198 15.9258 45.2372 15.9431 45.1571C15.9554 45.0919 15.9703 45.0268 15.9851 44.9617C15.9975 44.9067 16.0099 44.8516 16.0222 44.799C16.0395 44.7289 16.0569 44.6562 16.0742 44.5861C16.0865 44.5336 16.1014 44.4785 16.1162 44.4259C16.1286 44.3833 16.141 44.3382 16.1533 44.2957C16.2028 44.1179 16.2572 43.9376 16.3141 43.7598C16.3191 43.7473 16.3215 43.7323 16.3265 43.7198C16.3834 43.547 16.4452 43.3742 16.5095 43.2014C16.5269 43.1589 16.5417 43.1138 16.559 43.0712C16.6159 42.926 16.6728 42.7808 16.7347 42.6355C16.7445 42.613 16.752 42.5904 16.7619 42.5679C16.8311 42.4077 16.9029 42.2474 16.9771 42.0896C16.9969 42.0471 17.0167 42.007 17.0364 41.9669C17.0983 41.8417 17.1601 41.7165 17.2244 41.5913C17.2442 41.5538 17.264 41.5162 17.2838 41.4762C17.3654 41.3209 17.452 41.1657 17.5386 41.0129C17.5559 40.9854 17.5732 40.9553 17.5881 40.9278C17.6648 40.7951 17.7464 40.6624 17.8256 40.5322C17.8503 40.4946 17.8726 40.4545 17.8973 40.417C17.9987 40.2592 18.1026 40.1015 18.209 39.9462C18.2263 39.9237 18.2411 39.9011 18.2584 39.8761C18.3698 39.7158 18.4836 39.5606 18.5998 39.4053C18.6147 39.3853 18.6295 39.3653 18.6468 39.3453C18.7928 39.1549 18.9437 38.9696 19.0995 38.7869C19.1193 38.7618 19.1391 38.7393 19.1613 38.7142C19.2578 38.6041 19.3543 38.4964 19.4508 38.3887C19.4557 38.3837 19.4607 38.3787 19.4656 38.3712C19.5695 38.261 19.6734 38.1508 19.7798 38.0457C19.8466 37.9781 19.9158 37.9105 19.9851 37.8454C20.0049 37.8278 20.0222 37.8078 20.0395 37.7903C20.1286 37.7051 20.2201 37.6225 20.3116 37.5424C20.3363 37.5198 20.3611 37.4998 20.3858 37.4773C20.4526 37.4197 20.5194 37.3596 20.5887 37.3045C20.6233 37.2769 20.6555 37.2494 20.6901 37.2219C20.7495 37.1743 20.8113 37.1242 20.8707 37.0791C20.9078 37.0516 20.9449 37.024 20.9795 36.9965C21.0389 36.9514 21.1007 36.9064 21.1601 36.8638C21.1972 36.8387 21.2318 36.8112 21.2689 36.7862C21.3332 36.7411 21.4 36.696 21.4668 36.6534C21.499 36.6334 21.5311 36.6109 21.5608 36.5908C21.6573 36.5282 21.7562 36.4681 21.8552 36.4106C21.9863 36.3329 22.1149 36.2653 22.246 36.1977C22.2831 36.1777 22.3202 36.1602 22.3573 36.1426C22.4563 36.0951 22.5528 36.05 22.6492 36.0074C22.6839 35.9924 22.7185 35.9774 22.7531 35.9623C22.8447 35.9248 22.9337 35.8897 23.0252 35.8572C23.0475 35.8497 23.0698 35.8396 23.092 35.8321C23.2033 35.7946 23.3147 35.7595 23.4235 35.7295C23.4878 35.7119 23.5521 35.6969 23.6165 35.6819C23.6461 35.6744 23.6758 35.6669 23.7055 35.6594C23.7995 35.6393 23.891 35.6218 23.985 35.6068C23.9875 35.6068 23.99 35.6068 23.9949 35.6068C24.079 35.5942 24.1631 35.5842 24.2448 35.5767C24.272 35.5742 24.2992 35.5717 24.3264 35.5717C24.3858 35.5667 24.4451 35.5642 24.5045 35.5617C24.5317 35.5617 24.5565 35.5617 24.5812 35.5617C24.643 35.5617 24.7024 35.5617 24.7618 35.5642C24.7816 35.5642 24.8038 35.5642 24.8236 35.5642C24.8459 35.5642 24.8706 35.5692 24.8929 35.5692C24.9869 35.5767 25.0784 35.5867 25.1699 35.6018C25.1971 35.6068 25.2268 35.6118 25.254 35.6168C25.3579 35.6368 25.4618 35.6594 25.5608 35.6894C25.5657 35.6894 25.5707 35.6919 25.5756 35.6944C25.6696 35.722 25.7611 35.757 25.8527 35.7921C25.8799 35.8021 25.9046 35.8146 25.9318 35.8271C26.0085 35.8622 26.0852 35.8997 26.1594 35.9398C26.1841 35.9523 26.2089 35.9648 26.2336 35.9799L17.8478 31.047C17.8478 31.047 17.8255 31.0345 17.8132 31.0269C17.8008 31.0194 17.786 31.0144 17.7736 31.0069C17.6994 30.9668 17.6252 30.9293 17.546 30.8942C17.5312 30.8867 17.5188 30.8792 17.504 30.8742C17.4916 30.8692 17.4792 30.8667 17.4669 30.8617C17.3753 30.8241 17.2838 30.7916 17.1898 30.7615C17.1849 30.7615 17.1824 30.759 17.1774 30.7565C17.0785 30.7265 16.9746 30.7039 16.8707 30.6839C16.8583 30.6839 16.8484 30.6789 16.8361 30.6764C16.8212 30.6739 16.8039 30.6739 16.7866 30.6714C16.6951 30.6563 16.6035 30.6463 16.5095 30.6388C16.4947 30.6388 16.4799 30.6338 16.465 30.6338C16.4576 30.6338 16.4477 30.6338 16.4403 30.6338C16.4205 30.6338 16.3982 30.6338 16.3784 30.6338C16.3191 30.6338 16.2572 30.6313 16.1979 30.6313C16.1731 30.6313 16.1459 30.6313 16.1212 30.6313C16.1014 30.6313 16.0816 30.6313 16.0618 30.6313C16.0222 30.6313 15.9851 30.6363 15.9455 30.6388C15.9183 30.6388 15.8911 30.6413 15.8639 30.6438C15.7823 30.6513 15.6982 30.6614 15.6141 30.6739C15.6116 30.6739 15.6067 30.6739 15.6042 30.6739C15.5127 30.6889 15.4211 30.7064 15.3271 30.7265C15.2974 30.734 15.2678 30.7415 15.2381 30.749C15.1812 30.7615 15.1218 30.7765 15.0649 30.7916C15.06 30.7916 15.0525 30.7966 15.0476 30.7966C14.9388 30.8266 14.8274 30.8617 14.7161 30.8992C14.6939 30.9068 14.6716 30.9168 14.6493 30.9243C14.5603 30.9568 14.4688 30.9919 14.3772 31.0294C14.3649 31.0345 14.3525 31.037 14.3401 31.0445C14.3179 31.0545 14.2956 31.067 14.2733 31.0745C14.1769 31.1171 14.0779 31.1622 13.9814 31.2097C13.9443 31.2273 13.9072 31.2448 13.8701 31.2648C13.7415 31.3299 13.6104 31.4 13.4793 31.4777C13.3803 31.5353 13.2814 31.5954 13.1849 31.658C13.1528 31.678 13.1231 31.7005 13.0909 31.7206C13.0241 31.7631 12.9598 31.8082 12.893 31.8533C12.8559 31.8783 12.8213 31.9058 12.7842 31.9309C12.7223 31.9735 12.663 32.0185 12.6036 32.0636C12.5665 32.0911 12.5294 32.1187 12.4948 32.1462C12.4329 32.1938 12.3735 32.2414 12.3142 32.289C12.2795 32.3165 12.2449 32.344 12.2128 32.3716C12.1435 32.4292 12.0767 32.4868 12.0099 32.5444C11.9852 32.5669 11.9604 32.5869 11.9357 32.6095C11.8442 32.6896 11.7551 32.7722 11.6636 32.8574C11.6438 32.8749 11.6265 32.8924 11.6092 32.91C11.5498 32.9675 11.4904 33.0251 11.4311 33.0827C11.4212 33.0902 11.4137 33.1003 11.4063 33.1103C11.3 33.2154 11.1961 33.3256 11.0922 33.4358C11.0872 33.4408 11.0823 33.4483 11.0749 33.4533C10.9784 33.5585 10.8819 33.6662 10.7854 33.7763C10.7755 33.7864 10.7681 33.7964 10.7582 33.8064C10.7459 33.8189 10.736 33.8339 10.7236 33.849C10.5702 34.0292 10.4169 34.2145 10.2709 34.4074C10.266 34.4124 10.261 34.4174 10.2585 34.4224C10.2462 34.4374 10.2363 34.4524 10.2264 34.4674C10.1101 34.6202 9.99634 34.7779 9.88502 34.9357C9.87513 34.9507 9.86275 34.9657 9.85038 34.9833C9.84543 34.9908 9.84048 34.9983 9.83554 35.0058C9.72917 35.1611 9.62528 35.3163 9.52386 35.4766C9.51397 35.4916 9.50407 35.5066 9.49417 35.5216C9.47934 35.5442 9.46696 35.5692 9.45212 35.5917C9.37049 35.722 9.29134 35.8547 9.21465 35.9874C9.20228 36.0074 9.1899 36.0274 9.17754 36.05C9.17259 36.0575 9.17012 36.065 9.16518 36.075C9.0786 36.2278 8.99202 36.383 8.91039 36.5383C8.90297 36.5508 8.89554 36.5633 8.8906 36.5758C8.87823 36.6009 8.86586 36.6284 8.85102 36.6534C8.7867 36.7761 8.72486 36.9013 8.66302 37.0265C8.65065 37.0516 8.63581 37.0791 8.62344 37.1042C8.61602 37.1192 8.6086 37.1367 8.60118 37.1517C8.52697 37.3095 8.45276 37.4698 8.38597 37.63C8.38597 37.635 8.38102 37.64 8.37854 37.645C8.37112 37.6626 8.36369 37.6801 8.35627 37.6976C8.29443 37.8428 8.23753 37.9881 8.18064 38.1333C8.17075 38.1558 8.16085 38.1809 8.15096 38.2034C8.14353 38.2235 8.13612 38.2435 8.13118 38.2635C8.06686 38.4363 8.00501 38.6091 7.94811 38.7819C7.94811 38.7844 7.94564 38.7894 7.94564 38.7919C7.94316 38.8019 7.9407 38.8119 7.93575 38.8219C7.87639 38.9997 7.82443 39.18 7.77495 39.3578C7.76753 39.3803 7.76012 39.4028 7.75517 39.4254C7.75023 39.4454 7.74527 39.4679 7.74032 39.488C7.72548 39.5406 7.71312 39.5957 7.69828 39.6482C7.68096 39.7183 7.66365 39.791 7.64633 39.8611C7.63396 39.9162 7.62159 39.9713 7.60922 40.0238C7.6018 40.0614 7.59191 40.099 7.58449 40.1365C7.57954 40.1641 7.57459 40.1891 7.56964 40.2166C7.55232 40.2993 7.53749 40.3794 7.52264 40.462C7.51274 40.5171 7.50286 40.5747 7.49296 40.6298C7.47812 40.7149 7.46822 40.7976 7.45585 40.8827C7.4509 40.9228 7.44349 40.9603 7.43854 41.0004C7.43854 41.0104 7.43854 41.0204 7.43607 41.0304C7.41381 41.2107 7.39649 41.3885 7.38412 41.5638C7.38165 41.6014 7.37917 41.6389 7.3767 41.6765C7.36681 41.8593 7.35938 42.0396 7.35938 42.2173C7.36432 44.1805 8.04954 45.5602 9.15281 46.2087L17.5386 51.1416C16.4353 50.4931 15.7501 49.1109 15.7452 47.1502C15.7452 46.9725 15.7526 46.7922 15.7625 46.6094C15.7625 46.5718 15.7674 46.5343 15.7699 46.4967L15.7575 46.5017Z" fill="#EFF3FA"/>
<path d="M21.8539 36.4108C25.2503 34.4251 28.0109 36.0176 28.0233 39.9664C28.0332 43.9153 25.2899 48.728 21.8935 50.7111C18.4996 52.6943 15.7365 51.1018 15.7266 47.1529C15.7167 43.2041 18.46 38.3939 21.8539 36.4108Z" fill="white"/>
<path d="M5.23185 34.2657L4.88262 34.8741L11.2627 38.6269L11.6119 38.0185L5.23185 34.2657Z" fill="#035BE8"/>
<path d="M2.14479 59.107C2.14726 59.0694 2.15221 59.0319 2.15469 58.9943L2.16458 58.8916C2.16953 58.8416 2.17448 58.7915 2.17942 58.7414L2.21405 58.5085C2.23384 58.3908 2.25363 58.2706 2.28084 58.1504L2.29816 58.0753C2.313 58.0127 2.32784 57.9526 2.35011 57.8575L2.36495 57.7899C2.37484 57.7473 2.38474 57.7047 2.39711 57.6622L2.42927 57.557C2.44658 57.4994 2.4639 57.4393 2.48121 57.3817L2.49605 57.3291C2.50595 57.2966 2.51584 57.264 2.52574 57.234C2.54058 57.1914 2.55542 57.1488 2.57027 57.1063L2.66674 56.8358C2.71374 56.7081 2.76569 56.5829 2.82506 56.4427L2.84979 56.3901C2.89432 56.29 2.93637 56.1898 2.98337 56.0922L3.16148 55.7341C3.206 55.6464 3.25548 55.5638 3.31732 55.4511L3.3569 55.381C3.42616 55.2608 3.4979 55.1431 3.57211 55.0229L3.723 54.7951C3.75269 54.75 3.78237 54.7049 3.81206 54.6599L3.89121 54.5522C3.92832 54.4996 3.9679 54.447 4.00748 54.3944L4.08911 54.2818C4.11137 54.2542 4.13364 54.2267 4.1559 54.1991L4.19548 54.1515C4.2499 54.0839 4.30185 54.0163 4.35627 53.9512L4.42553 53.8636C4.49974 53.7785 4.57395 53.6933 4.65558 53.6057C4.7298 53.5255 4.80401 53.4479 4.88069 53.3728L4.96974 53.2877C5.01674 53.2426 5.06374 53.1975 5.11074 53.155C5.1899 53.0823 5.26906 53.0122 5.36553 52.9296C5.40759 52.8945 5.44964 52.857 5.49417 52.8219C5.58074 52.7518 5.6698 52.6842 5.75885 52.6191L5.8009 52.589C5.83059 52.5665 5.8578 52.5465 5.88748 52.5264C6.02106 52.4338 6.15711 52.3462 6.29317 52.266L12.5318 48.6202L8.9598 46.5193C7.69822 45.7756 6.99817 44.2507 6.99322 42.2225C6.99322 42.0372 7.00064 41.8494 7.01301 41.629L7.01796 41.5439C7.03033 41.3611 7.04764 41.1758 7.0699 40.9955C7.0699 40.9905 7.07238 40.9629 7.07485 40.9579L7.09217 40.8377C7.10454 40.7501 7.1169 40.665 7.13175 40.5773L7.16143 40.4046C7.17627 40.3194 7.19112 40.2368 7.21585 40.1216L7.29006 39.7836C7.30738 39.7109 7.32469 39.6383 7.34448 39.5632L7.42364 39.2652C7.47559 39.0824 7.53001 38.8971 7.59185 38.7093C7.59185 38.7043 7.60175 38.6768 7.60422 38.6718C7.66359 38.494 7.72543 38.3162 7.79964 38.1209C7.79964 38.1159 7.81448 38.0808 7.81448 38.0783L7.84417 38.0057C7.90106 37.8555 7.96043 37.7077 8.03217 37.5425L8.05443 37.4899C8.12617 37.3246 8.20038 37.1619 8.28201 36.9866C8.28201 36.9816 8.29438 36.9565 8.29685 36.9515L8.33643 36.8739C8.39828 36.7462 8.46259 36.6185 8.54175 36.4632L8.56896 36.4082L8.58875 36.3706C8.67285 36.2103 8.75943 36.0526 8.86333 35.8723L8.90291 35.8072C8.98207 35.672 9.0637 35.5368 9.16264 35.3765L9.21954 35.2864C9.32343 35.1236 9.4298 34.9633 9.55349 34.7831L9.58812 34.7355C9.70191 34.5727 9.81817 34.4125 9.94928 34.2422L9.98638 34.1921C10.1372 33.9968 10.2906 33.8065 10.4563 33.6112C10.4588 33.6062 10.4811 33.5811 10.4836 33.5786L10.5108 33.5461C10.6073 33.4334 10.7062 33.3232 10.8224 33.1955C10.9288 33.0803 11.0352 32.9702 11.144 32.86L11.1712 32.8324C11.2331 32.7723 11.2924 32.7122 11.3765 32.6346L11.4137 32.5996C11.5052 32.5119 11.5992 32.4268 11.6932 32.3442L11.7699 32.2765C11.8391 32.2164 11.9085 32.1564 11.9777 32.0988L12.0841 32.0136C12.146 31.9635 12.2078 31.9135 12.272 31.8659L12.3858 31.7808C12.4478 31.7332 12.512 31.6881 12.5738 31.643L12.6876 31.5629C12.7569 31.5153 12.8237 31.4703 12.8954 31.4227L12.992 31.3576C13.0934 31.2925 13.1947 31.2299 13.2986 31.1698C13.4347 31.0896 13.5707 31.017 13.7043 30.9494L13.8205 30.8918C13.9244 30.8418 14.026 30.7942 14.1472 30.7416L14.2361 30.704C14.3327 30.664 14.4291 30.6264 14.5454 30.5838L14.5948 30.5663C14.7136 30.5262 14.8299 30.4887 14.966 30.4511C15.0154 30.4386 15.0648 30.4261 15.1143 30.4136L15.2479 30.381C15.3468 30.3585 15.4458 30.3409 15.5447 30.3259C15.5497 30.3259 15.5546 30.3259 15.5596 30.3259C15.6486 30.3134 15.7378 30.3009 15.8267 30.2934L15.8886 30.2884L15.9504 30.2834C15.9826 30.2809 16.0122 30.2783 16.0444 30.2758H16.1928C16.2596 30.2733 16.3265 30.2733 16.4131 30.2758H16.4897C16.507 30.2809 16.5218 30.2809 16.5367 30.2834C16.6406 30.2909 16.742 30.3034 16.8434 30.3184C16.8508 30.3184 16.8854 30.3234 16.8929 30.3259C16.9102 30.3284 16.925 30.3334 16.9349 30.3359C17.0339 30.3535 17.1329 30.376 17.2492 30.4086C17.264 30.4111 17.2789 30.4161 17.2888 30.4186C17.3951 30.4511 17.4964 30.4887 17.5904 30.5262C17.6003 30.5287 17.63 30.5388 17.6399 30.5438C17.6572 30.5513 17.6722 30.5588 17.6846 30.5663C17.7711 30.6039 17.8552 30.6464 17.9369 30.6915C17.9468 30.6965 17.9739 30.709 17.9838 30.714L26.4067 35.6695C26.4091 35.6695 26.4116 35.672 26.4142 35.6745C27.6707 36.4182 28.3659 37.9406 28.3709 39.9638C28.3758 42.0923 27.6016 44.4686 26.3573 46.5419L30.9312 49.2312C30.9312 49.2312 30.9386 49.2362 30.9435 49.2387C31.7994 49.747 32.2719 50.7761 32.2768 52.1383L32.3064 62.2996C32.3064 62.4248 32.2397 62.5425 32.1334 62.6051L11.0129 74.9473C10.9585 74.9799 10.8991 74.9949 10.8398 74.9949C10.8249 74.9949 10.8102 74.9949 10.7952 74.9924C10.7853 74.9924 10.7754 74.9899 10.7655 74.9874C10.7606 74.9874 10.7556 74.9874 10.7507 74.9849C10.721 74.9774 10.6938 74.9649 10.6666 74.9498L2.32537 70.0445C2.219 69.9819 2.15221 69.8667 2.15221 69.7415L2.125 59.5802C2.125 59.4225 2.13242 59.2647 2.14479 59.1045V59.107ZM17.6771 31.3501L17.6524 31.335C17.6524 31.335 17.6178 31.3175 17.6128 31.315C17.5485 31.28 17.4816 31.2474 17.4148 31.2174C17.4 31.2098 17.3851 31.2048 17.3851 31.2023C17.3778 31.1998 17.3531 31.1898 17.3432 31.1873C17.2664 31.1573 17.1897 31.1272 17.0932 31.0972C17.0908 31.0972 17.0883 31.0972 17.0858 31.0972C16.9968 31.0721 16.9053 31.0521 16.8138 31.0346L16.7816 31.027C16.7816 31.027 16.7421 31.022 16.7371 31.022C16.6554 31.0095 16.5714 30.9995 16.4873 30.992L16.4229 30.987H16.3684C16.314 30.982 16.2597 30.982 16.2028 30.982L15.896 30.997C15.8193 31.0045 15.7427 31.0145 15.661 31.0245C15.6586 31.0245 15.656 31.0245 15.656 31.0245C15.5719 31.0371 15.4853 31.0546 15.3988 31.0721L15.2776 31.1022C15.2355 31.1122 15.196 31.1222 15.1367 31.1372C15.0328 31.1648 14.9312 31.1973 14.8001 31.2449C14.7977 31.2449 14.7655 31.2574 14.7606 31.2599C14.6764 31.29 14.5899 31.3225 14.5033 31.3601L14.4489 31.3826C14.4489 31.3826 14.4118 31.4001 14.4068 31.4026C14.3153 31.4427 14.2213 31.4853 14.1026 31.5454L14.0234 31.5854C13.8997 31.648 13.776 31.7156 13.65 31.7883C13.556 31.8434 13.4594 31.9009 13.3679 31.961L13.2764 32.0211C13.2121 32.0637 13.1502 32.1063 13.0859 32.1488L12.982 32.224C12.9227 32.2665 12.8657 32.3091 12.8063 32.3517L12.7 32.4318C12.6406 32.4769 12.5837 32.5244 12.4997 32.5895L12.4254 32.6496C12.3586 32.7047 12.2943 32.7598 12.2301 32.8174L12.1582 32.88C12.0693 32.9576 11.9826 33.0378 11.8935 33.1229L11.8664 33.1479C11.8664 33.1479 11.8391 33.173 11.8391 33.1755C11.7822 33.2306 11.7229 33.2857 11.666 33.3433L11.6412 33.3683C11.5373 33.471 11.436 33.5761 11.3197 33.7013C11.2257 33.804 11.1318 33.9092 11.0377 34.0168L11.003 34.0569C11.003 34.0569 10.9808 34.0844 10.9783 34.0869C10.8274 34.2622 10.6814 34.445 10.538 34.6303L10.5157 34.6579C10.5157 34.6579 10.4959 34.6854 10.4935 34.6904C10.3797 34.8406 10.2683 34.9934 10.1595 35.1486C10.1595 35.1511 10.1397 35.1762 10.1372 35.1787L10.1125 35.2162C10.0086 35.3665 9.90723 35.5192 9.80828 35.6745L9.78849 35.707L9.76375 35.7471L9.73901 35.7872C9.65986 35.9149 9.5807 36.0426 9.50649 36.1703L9.45701 36.2554C9.37043 36.4057 9.2888 36.5559 9.20964 36.7061C9.20964 36.7061 9.18738 36.7437 9.18738 36.7462L9.15028 36.8188C9.08843 36.939 9.02659 37.0617 8.96722 37.1844L8.9227 37.272C8.9227 37.272 8.90786 37.3021 8.90786 37.3046C8.83364 37.4598 8.76438 37.6151 8.70007 37.7653L8.68522 37.8029C8.68522 37.8029 8.67285 37.8354 8.67038 37.8379C8.61101 37.9782 8.55412 38.1209 8.4997 38.2636L8.46506 38.3538C8.46506 38.3538 8.4527 38.3863 8.4527 38.3888C8.39085 38.5566 8.32901 38.7244 8.27459 38.8921C8.27459 38.8946 8.26222 38.9297 8.26222 38.9322C8.20533 39.105 8.15338 39.2803 8.10391 39.453C8.10391 39.4555 8.08659 39.5131 8.08412 39.5181L8.06927 39.5782L8.0297 39.7335C8.01238 39.8036 7.99506 39.8712 7.97775 39.9413L7.9258 40.1792L15.6809 44.7415L15.6882 44.7114C15.7055 44.6388 15.7228 44.5637 15.75 44.4585L15.8218 44.1931C15.8737 44.0103 15.9282 43.825 15.9875 43.6422L15.9999 43.5997C16.0592 43.4219 16.1211 43.2441 16.1879 43.0688L16.2399 42.9361C16.2968 42.7859 16.3561 42.6381 16.4328 42.4603L16.4502 42.4203C16.5194 42.255 16.596 42.0923 16.6727 41.9295L16.7347 41.8043C16.7965 41.6766 16.8608 41.5489 16.9276 41.4212L16.9869 41.3035C17.071 41.1432 17.1576 40.9855 17.2466 40.8302L17.2986 40.7426C17.3777 40.6074 17.4593 40.4722 17.5435 40.3394L17.6177 40.2218C17.7216 40.059 17.828 39.8987 17.9369 39.741L17.9862 39.6709C18.1 39.5081 18.2164 39.3479 18.3574 39.1626L18.3846 39.1275C18.5354 38.9322 18.6889 38.7419 18.8472 38.5566L18.909 38.4815C19.008 38.3688 19.1068 38.2561 19.2206 38.1309C19.327 38.0157 19.4335 37.9056 19.5423 37.7954C19.6116 37.7253 19.6808 37.6577 19.7723 37.57L19.8094 37.5325C19.901 37.4448 19.995 37.3597 20.089 37.277L20.1657 37.2094C20.2349 37.1493 20.3042 37.0892 20.3759 37.0317L20.4823 36.9465C20.4995 36.9315 20.5169 36.919 20.5342 36.9065C20.5664 36.8814 20.5986 36.8539 20.6307 36.8288C20.6431 36.8188 20.6555 36.8088 20.6702 36.7988L20.7024 36.7737C20.7221 36.7587 20.7444 36.7412 20.7642 36.7262L20.7816 36.7111C20.7816 36.7111 20.794 36.7036 20.7989 36.6986C21.0908 36.4783 21.3901 36.2804 21.6919 36.1027C22.5825 35.5818 23.4531 35.2839 24.2596 35.2137L17.682 31.3451L17.6771 31.3501ZM26.0529 36.2779C26.0529 36.2779 26.0431 36.2729 26.0382 36.2704C26.0382 36.2704 26.0011 36.2504 25.9986 36.2504C25.9342 36.2153 25.8675 36.1828 25.8007 36.1527L25.7315 36.1227C25.6597 36.0926 25.5854 36.0651 25.4988 36.0401C25.4841 36.0351 25.4692 36.0326 25.4544 36.0275C25.3703 36.005 25.2861 35.985 25.1996 35.97L25.1254 35.9574C25.0438 35.9449 24.9597 35.9349 24.8756 35.9274C24.8731 35.9274 24.8162 35.9224 24.8137 35.9224C24.8137 35.9224 24.7568 35.9224 24.7544 35.9224C24.6999 35.9224 24.6455 35.9174 24.5911 35.9199H24.5194C24.4648 35.9224 24.413 35.9249 24.3264 35.9324H24.2844C24.2077 35.9424 24.131 35.9524 24.0444 35.9649C23.9603 35.9775 23.8736 35.995 23.7871 36.0125L23.7055 36.0326C23.646 36.0476 23.5868 36.0601 23.5249 36.0776C23.4235 36.1052 23.3196 36.1377 23.186 36.1853C23.186 36.1853 23.1514 36.1978 23.1489 36.1978C23.0648 36.2279 22.9782 36.2604 22.8917 36.2955L22.7927 36.338C22.7012 36.3781 22.6072 36.4207 22.4983 36.4733L22.4093 36.5183C22.2856 36.5809 22.1619 36.6485 22.0358 36.7212C21.9418 36.7762 21.8452 36.8338 21.7537 36.8939L21.6622 36.954C21.5979 36.9966 21.5361 37.0392 21.4718 37.0817L21.3654 37.1569C21.306 37.1994 21.2491 37.242 21.1898 37.2846L21.0834 37.3647C21.024 37.4098 20.9671 37.4573 20.9078 37.5024L20.8088 37.5825C20.742 37.6376 20.6777 37.6927 20.6133 37.7503L20.5417 37.8129C20.4526 37.8905 20.366 37.9707 20.2795 38.0533L20.2498 38.0808C20.2498 38.0808 20.225 38.1034 20.225 38.1059C20.1582 38.1685 20.0914 38.2336 20.0271 38.2987C19.9231 38.4013 19.8218 38.5065 19.708 38.6317C19.6116 38.7344 19.5176 38.842 19.426 38.9472L19.3667 39.0173C19.2158 39.1951 19.0698 39.3754 18.9066 39.5882L18.8818 39.6208C18.768 39.771 18.6567 39.9238 18.5479 40.079L18.4984 40.1466C18.3944 40.2969 18.2931 40.4496 18.194 40.6049L18.1223 40.7176C18.0431 40.8453 17.964 40.973 17.8898 41.1032L17.8404 41.1883C17.7537 41.3385 17.6721 41.4888 17.5904 41.639L17.5337 41.7517C17.4718 41.8719 17.41 41.9946 17.3506 42.1173L17.2912 42.2375C17.217 42.3927 17.1477 42.548 17.0685 42.7333L17.0538 42.7708C16.9944 42.9111 16.9375 43.0538 16.883 43.194L16.8336 43.3217C16.7718 43.4895 16.7099 43.6573 16.6554 43.8275C16.6504 43.84 16.6481 43.8526 16.6431 43.8676C16.5862 44.0429 16.5343 44.2156 16.4847 44.3909L16.408 44.6714C16.3907 44.7415 16.3735 44.8091 16.3562 44.8792L16.2795 45.2248C16.2647 45.3049 16.2498 45.3825 16.235 45.4601L16.2052 45.6254C16.1928 45.7055 16.1804 45.7882 16.1681 45.8683L16.1483 46.011C16.126 46.1838 16.1112 46.3541 16.0988 46.5243L16.0914 46.6345C16.0815 46.8098 16.0741 46.9826 16.0741 47.1528C16.0741 47.1528 16.0741 47.1529 16.0741 47.1554C16.0741 47.2104 16.0741 47.263 16.0741 47.3181C16.0741 47.3532 16.0742 47.3857 16.0766 47.4208C16.0766 47.4408 16.0766 47.4608 16.0766 47.4809C16.0766 47.5284 16.0816 47.5735 16.0841 47.6211C16.0841 47.6261 16.0841 47.6336 16.0841 47.6411C16.0865 47.6912 16.0914 47.7438 16.0963 47.7939C16.0963 47.7939 16.0963 47.7939 16.0963 47.7964C16.1928 48.8756 16.5268 49.747 17.071 50.3404C17.071 50.3404 17.0735 50.343 17.0759 50.3455C17.0982 50.3705 17.1229 50.3955 17.1477 50.4206C17.1502 50.4231 17.1527 50.4256 17.1552 50.4281C17.1774 50.4506 17.2021 50.4732 17.2268 50.4957C17.2318 50.4982 17.2342 50.5032 17.2392 50.5057C17.2615 50.5257 17.2863 50.5483 17.3084 50.5683C17.3134 50.5733 17.3183 50.5783 17.3233 50.5808C17.3456 50.6009 17.3703 50.6184 17.3926 50.6384C17.4 50.6434 17.405 50.6484 17.4124 50.6534C17.4347 50.671 17.457 50.6885 17.4817 50.7035C17.489 50.7085 17.4964 50.7135 17.5039 50.7211C17.5261 50.7361 17.5484 50.7511 17.5731 50.7686C17.5806 50.7736 17.5905 50.7812 17.5979 50.7862C17.6201 50.8012 17.6424 50.8137 17.6671 50.8287C17.6795 50.8362 17.6895 50.8438 17.7018 50.8513C18.7556 51.4647 20.1829 51.3095 21.7167 50.4131C25.0116 48.4875 27.6832 43.805 27.6708 39.9739C27.6659 38.201 27.087 36.8914 26.0407 36.2805L26.0529 36.2779ZM25.9911 47.1403C24.9151 48.7654 23.5546 50.1552 22.0753 51.019C21.0487 51.62 20.0494 51.923 19.144 51.923C18.4984 51.923 17.8973 51.7702 17.3653 51.4597C17.3629 51.4597 17.3604 51.4547 17.3555 51.4547C17.3555 51.4547 17.3555 51.4547 17.353 51.4547L13.2318 49.0309L6.6469 52.8795C6.52569 52.9496 6.40696 53.0272 6.28822 53.1099L6.17443 53.1925C6.09527 53.2526 6.01364 53.3127 5.93448 53.3753C5.89738 53.4054 5.8578 53.4379 5.80338 53.483C5.73164 53.5431 5.66238 53.6057 5.59064 53.6708L13.3035 58.208C13.3035 58.208 13.3134 58.2005 13.3159 58.1955C13.3382 58.1755 13.3581 58.1555 13.3802 58.1354C13.3926 58.1229 13.405 58.1129 13.4149 58.1029C13.4297 58.0903 13.4421 58.0753 13.4569 58.0628C13.4891 58.0353 13.5189 58.0052 13.551 57.9777C13.8973 57.6672 14.2609 57.3942 14.6369 57.1764L27.7351 49.5216C28.205 49.2462 28.6677 49.0659 29.108 48.9783L25.9887 47.1428L25.9911 47.1403ZM11.191 74.0384L31.6164 62.1018L31.5892 52.1458C31.5867 51.0366 31.2304 50.2178 30.5872 49.8422C30.5872 49.8422 30.565 49.8296 30.5552 49.8246C30.5156 49.8021 30.476 49.7846 30.4339 49.7645L30.3944 49.747C30.3944 49.747 30.3894 49.747 30.3869 49.7445C30.3573 49.732 30.33 49.722 30.2979 49.7119C30.2732 49.7044 30.2484 49.6944 30.2236 49.6869C30.1716 49.6719 30.1198 49.6619 30.0678 49.6518L30.0208 49.6443C29.9713 49.6368 29.9194 49.6293 29.8353 49.6243C29.771 49.6193 29.7017 49.6193 29.6349 49.6243C29.6201 49.6243 29.6053 49.6243 29.5904 49.6243C29.5137 49.6318 29.4346 49.6368 29.3554 49.6493C29.3034 49.6569 29.249 49.6669 29.1946 49.6794C29.1773 49.6819 29.16 49.6869 29.1427 49.6894C29.1056 49.6994 29.0685 49.7094 29.0314 49.7195C28.967 49.737 28.9026 49.757 28.8358 49.7796C28.8211 49.7846 28.8086 49.7871 28.7938 49.7921C28.7395 49.8121 28.6875 49.8346 28.6331 49.8547L28.6009 49.8697C28.6009 49.8697 28.5787 49.8797 28.5713 49.8822C28.5119 49.9073 28.4524 49.9348 28.3857 49.9699L28.3288 49.9974C28.2966 50.0149 28.262 50.0325 28.2299 50.05C28.1854 50.075 28.1383 50.1001 28.0938 50.1251L14.9956 57.7799C14.9733 57.7924 14.951 57.8074 14.9289 57.8224C14.8299 57.8825 14.7333 57.9451 14.6369 58.0127L14.5206 58.0979C14.4415 58.1555 14.3598 58.2156 14.2807 58.2807C14.2436 58.3107 14.2041 58.3433 14.1496 58.3908C14.0778 58.4534 14.0036 58.516 13.9344 58.5811C13.8898 58.6212 13.8478 58.6613 13.8057 58.7038C13.7092 58.799 13.6103 58.8941 13.5138 58.9993C13.4198 59.0995 13.3308 59.2071 13.2417 59.3123C13.1898 59.3724 13.1404 59.435 13.0908 59.4976C13.0315 59.5727 12.9746 59.6453 12.9152 59.723C12.8781 59.7705 12.8434 59.8206 12.8088 59.8707C12.7445 59.9633 12.6803 60.056 12.6184 60.1511L12.5441 60.2638C12.46 60.3965 12.3784 60.5293 12.3017 60.6645L12.2646 60.7321C12.2003 60.8498 12.136 60.9649 12.0766 61.0826L12.0173 61.2003C11.9555 61.3255 11.896 61.4532 11.8391 61.5809H11.8368C11.8293 61.596 11.8218 61.611 11.8169 61.626H11.8193C11.7575 61.7687 11.7006 61.914 11.6487 62.0567L11.6041 62.1844C11.567 62.2871 11.5324 62.3922 11.5002 62.4974C11.483 62.55 11.4681 62.6051 11.4508 62.6577C11.4235 62.7503 11.4013 62.843 11.379 62.9331L11.3692 62.9682C11.3544 63.0232 11.3419 63.0783 11.3295 63.1309C11.2999 63.2636 11.2751 63.3938 11.2529 63.524L11.243 63.5917C11.2257 63.7043 11.2133 63.8145 11.2034 63.9247L11.191 64.0599C11.1811 64.2026 11.1737 64.3429 11.1737 64.4806L11.2009 74.0334L11.191 74.0384ZM2.85227 69.5387L10.4959 74.0359L10.4736 66.3686L2.83 61.8714L2.85227 69.5412V69.5387Z" fill="#035BE8"/>
<path d="M33.6773 7.41454C33.702 7.40954 33.7268 7.40202 33.749 7.39952C33.7663 7.39701 33.7861 7.39201 33.8034 7.39201C33.8208 7.39201 33.8406 7.387 33.8579 7.387C33.8777 7.387 33.895 7.3845 33.9148 7.3845C33.9296 7.3845 33.9445 7.3845 33.9593 7.3845C33.9791 7.3845 33.9989 7.3845 34.0162 7.3895C34.0286 7.3895 34.0409 7.39201 34.0533 7.39451C34.0731 7.39702 34.0929 7.40202 34.1127 7.40703C34.1226 7.40703 34.1325 7.41204 34.1423 7.41454C34.1671 7.42206 34.1893 7.42957 34.2116 7.43958C34.2166 7.43958 34.2215 7.44209 34.224 7.44459C34.2512 7.45711 34.2784 7.46963 34.3056 7.48466L27.9037 3.71863C27.9037 3.71863 27.8988 3.71613 27.8963 3.71362C27.874 3.7011 27.8493 3.68858 27.8245 3.67857C27.8196 3.67857 27.8171 3.67606 27.8122 3.67356C27.7924 3.66605 27.7726 3.65853 27.7503 3.65102C27.7479 3.65102 27.7429 3.65102 27.7404 3.65102C27.7305 3.64852 27.7207 3.64601 27.7108 3.64351C27.6984 3.64101 27.6835 3.636 27.6712 3.63349C27.6662 3.63349 27.6588 3.63349 27.6539 3.63349C27.6415 3.63349 27.6291 3.63099 27.6168 3.62849C27.6069 3.62849 27.597 3.62598 27.5846 3.62598C27.5772 3.62598 27.5673 3.62598 27.5599 3.62598C27.545 3.62598 27.5302 3.62598 27.5153 3.62598C27.5054 3.62598 27.498 3.62598 27.4881 3.62598C27.4782 3.62598 27.4683 3.62598 27.4584 3.62849C27.4411 3.62849 27.4238 3.63099 27.404 3.63349C27.3966 3.63349 27.3867 3.63349 27.3793 3.636C27.3694 3.636 27.3595 3.64101 27.3521 3.64101C27.3273 3.64601 27.3051 3.65102 27.2803 3.65603C27.2704 3.65603 27.2605 3.65853 27.2507 3.66354C27.2457 3.66354 27.2383 3.66855 27.2309 3.67105C27.1789 3.68608 27.127 3.70361 27.0701 3.72614L19.9557 6.68087C19.9063 6.7009 19.8568 6.71843 19.8073 6.73345C19.7925 6.73846 19.7752 6.74097 19.7603 6.74597C19.7356 6.75349 19.7084 6.75849 19.6836 6.7635C19.6663 6.76601 19.649 6.76851 19.6317 6.77101C19.6119 6.77352 19.5946 6.77602 19.5748 6.77602C19.555 6.77602 19.5377 6.77853 19.5204 6.77853C19.5055 6.77853 19.4907 6.77853 19.4758 6.77853C19.4561 6.77853 19.4363 6.77853 19.419 6.77352C19.4066 6.77352 19.3917 6.77101 19.3794 6.76851C19.3596 6.76601 19.3398 6.761 19.32 6.75599C19.3101 6.75349 19.2977 6.75098 19.2878 6.74848C19.2656 6.74097 19.2408 6.73345 19.2186 6.72594C19.2136 6.72594 19.2062 6.72093 19.2013 6.72093C19.1716 6.70841 19.1444 6.69589 19.1172 6.67837L25.5191 10.4444C25.5191 10.4444 25.524 10.4469 25.5265 10.4494C25.5512 10.4619 25.576 10.4745 25.6007 10.487C25.6007 10.487 25.6007 10.487 25.6032 10.487C25.6081 10.487 25.6155 10.492 25.6205 10.4945C25.6403 10.502 25.6576 10.5095 25.6774 10.5145C25.6799 10.5145 25.6848 10.5145 25.6898 10.517C25.6996 10.5195 25.712 10.522 25.7219 10.5245C25.7343 10.527 25.7466 10.5321 25.7615 10.5346C25.7689 10.5346 25.7763 10.5346 25.7813 10.5346C25.7936 10.5346 25.806 10.5371 25.8209 10.5396C25.8308 10.5396 25.8406 10.5421 25.8505 10.5421C25.8604 10.5421 25.8679 10.5421 25.8778 10.5421C25.8926 10.5421 25.9074 10.5421 25.9223 10.5421C25.9297 10.5421 25.9396 10.5421 25.947 10.5421C25.9569 10.5421 25.9668 10.5421 25.9767 10.5396C25.994 10.5396 26.0138 10.5371 26.0336 10.5346C26.041 10.5346 26.0509 10.5346 26.0583 10.5346C26.0682 10.5346 26.0756 10.5295 26.0855 10.5295C26.1103 10.5245 26.135 10.5195 26.1622 10.512C26.1721 10.512 26.182 10.5095 26.1919 10.507C26.1969 10.507 26.2043 10.502 26.2092 10.502C26.2587 10.487 26.3082 10.472 26.3576 10.4494L33.472 7.49467C33.5264 7.47214 33.5808 7.45461 33.6328 7.43958C33.6501 7.43458 33.6649 7.42957 33.6822 7.42706L33.6773 7.41454Z" fill="white"/>
<path d="M12.8112 29.6474C12.8112 29.6099 12.8112 29.5748 12.8112 29.5373C12.8112 29.5072 12.8112 29.4747 12.8112 29.4446C12.8112 29.4096 12.8038 29.377 12.7989 29.3419C12.7964 29.3144 12.7939 29.2844 12.789 29.2568C12.784 29.2243 12.7741 29.1942 12.7642 29.1617C12.7568 29.1366 12.7519 29.1091 12.7444 29.0865C12.7345 29.0565 12.7222 29.0289 12.7098 28.9989C12.6999 28.9764 12.6925 28.9538 12.6826 28.9338C12.6678 28.9063 12.6504 28.8812 12.6331 28.8537C12.6232 28.8361 12.6133 28.8161 12.601 28.8011C12.5812 28.7735 12.5589 28.751 12.5367 28.7285C12.5243 28.7159 12.5144 28.7034 12.502 28.6909C12.4649 28.6584 12.4278 28.6283 12.3858 28.6058L5.98385 24.8397C6.0259 24.8648 6.06548 24.8923 6.10011 24.9249C6.11248 24.9349 6.12238 24.9499 6.13475 24.9624C6.15701 24.985 6.17927 25.0075 6.19906 25.0351C6.21143 25.0526 6.22133 25.0701 6.23122 25.0876C6.24854 25.1127 6.26585 25.1377 6.27822 25.1653C6.28812 25.1853 6.29554 25.2078 6.30543 25.2304C6.3178 25.2579 6.33017 25.2855 6.34006 25.318C6.34748 25.3405 6.35243 25.3681 6.35985 25.3906C6.36727 25.4232 6.37717 25.4532 6.38459 25.4883C6.38954 25.5158 6.39201 25.5434 6.39448 25.5709C6.39943 25.606 6.40438 25.6385 6.40685 25.6736C6.40685 25.7036 6.40685 25.7362 6.40685 25.7662C6.40685 25.8038 6.40933 25.8388 6.40685 25.8764C6.40685 25.909 6.40191 25.9415 6.39943 25.9766C6.39696 26.0166 6.39448 26.0567 6.38954 26.0993L5.19722 35.0461C5.19722 35.0461 5.19722 35.0561 5.19722 35.0611C5.19227 35.1012 5.1898 35.1387 5.18732 35.1763C5.18485 35.2113 5.1799 35.2489 5.1799 35.284C5.1799 35.324 5.1799 35.3591 5.1799 35.3966C5.1799 35.4292 5.1799 35.4617 5.1799 35.4943C5.18238 35.5319 5.1898 35.5644 5.19227 35.5995C5.19722 35.627 5.19969 35.6571 5.20464 35.6846C5.21206 35.7171 5.22196 35.7472 5.22938 35.7797C5.2368 35.8048 5.24174 35.8298 5.24917 35.8549C5.25906 35.8849 5.2739 35.9125 5.28627 35.94C5.29617 35.96 5.30359 35.9826 5.31348 36.0026C5.32832 36.0301 5.34564 36.0527 5.36048 36.0777C5.37285 36.0953 5.38027 36.1128 5.39264 36.1278C5.41243 36.1528 5.43469 36.1729 5.45696 36.1954C5.46932 36.2054 5.47675 36.2205 5.48911 36.2305C5.52375 36.2605 5.56085 36.2881 5.60043 36.3106L12.0023 40.0766C11.9628 40.0541 11.9257 40.0265 11.891 39.9965C11.8787 39.9865 11.8712 39.974 11.8589 39.9614C11.8366 39.9389 11.8143 39.9189 11.7945 39.8913C11.7822 39.8763 11.7723 39.8588 11.7624 39.8412C11.7451 39.8162 11.7278 39.7937 11.7129 39.7661C11.703 39.7461 11.6956 39.7236 11.6857 39.7035C11.6733 39.676 11.661 39.6509 11.6486 39.6209C11.6412 39.5984 11.6362 39.5708 11.6288 39.5458C11.6214 39.5157 11.6115 39.4857 11.6041 39.4506C11.5991 39.4231 11.5967 39.3955 11.5917 39.3655C11.5868 39.3304 11.5818 39.2979 11.5769 39.2603C11.5769 39.2303 11.5769 39.1977 11.5769 39.1652C11.5769 39.1276 11.5744 39.09 11.5769 39.05C11.5769 39.0149 11.5818 38.9799 11.5843 38.9423C11.5868 38.8997 11.5892 38.8572 11.5967 38.8121L12.789 29.8653C12.789 29.8653 12.789 29.8553 12.789 29.8503C12.7939 29.8127 12.7939 29.7776 12.7989 29.7401C12.8013 29.7075 12.8063 29.6725 12.8063 29.6399L12.8112 29.6474Z" fill="#EFF3FA"/>
<path d="M19.6268 5.50615C19.6268 5.50615 19.6367 5.48862 19.6417 5.48111C19.6837 5.40349 19.7282 5.32837 19.7752 5.25575C19.7827 5.24573 19.7901 5.23572 19.795 5.2232C19.842 5.15309 19.8915 5.08297 19.941 5.01787C19.9509 5.00535 19.9608 4.99533 19.9707 4.98281C20.0102 4.93273 20.0523 4.88516 20.0943 4.84009C20.1166 4.81505 20.1413 4.79001 20.1636 4.76497C20.2106 4.71739 20.2551 4.66981 20.3046 4.62725C20.3096 4.62224 20.317 4.61473 20.3219 4.60972C20.3788 4.55964 20.4357 4.51457 20.4926 4.46949C20.505 4.45948 20.5198 4.44946 20.5322 4.43944C20.5916 4.39688 20.6485 4.35681 20.7078 4.32426C20.7697 4.2867 20.834 4.25665 20.8958 4.22911C20.9131 4.2216 20.9305 4.21408 20.9478 4.20657C20.9849 4.19155 21.0245 4.17903 21.0616 4.16651C21.0789 4.1615 21.0962 4.15399 21.1135 4.15148C21.1333 4.14648 21.1531 4.14147 21.1729 4.13896C21.1976 4.13396 21.2223 4.12895 21.2471 4.12644C21.2619 4.12644 21.2768 4.12394 21.2916 4.12144C21.3188 4.11893 21.3485 4.11643 21.3757 4.11643C21.3881 4.11643 21.398 4.11643 21.4103 4.11643C21.4475 4.11643 21.4846 4.12144 21.5217 4.12644C21.5241 4.12644 21.5266 4.12644 21.5316 4.12644C21.5662 4.13396 21.5983 4.14147 21.6305 4.15399C21.6379 4.15649 21.6478 4.159 21.6552 4.1615C21.6899 4.17402 21.7245 4.18904 21.7567 4.20908L15.3548 0.448054C15.3548 0.448054 15.3498 0.44555 15.3473 0.443046C15.3251 0.430526 15.3003 0.418006 15.2756 0.40799C15.2682 0.405486 15.2608 0.402982 15.2533 0.400478C15.2459 0.397974 15.2385 0.39547 15.2286 0.392966C15.2187 0.390462 15.2088 0.385454 15.1989 0.38295C15.1767 0.375438 15.1544 0.37043 15.1297 0.367926C15.1272 0.367926 15.1247 0.367926 15.1198 0.367926C15.1198 0.367926 15.1198 0.367926 15.1173 0.367926C15.0876 0.362918 15.0604 0.360414 15.0307 0.35791C15.0233 0.35791 15.0159 0.35791 15.0084 0.35791C14.9961 0.35791 14.9862 0.35791 14.9738 0.35791C14.9614 0.35791 14.9466 0.35791 14.9342 0.35791C14.9194 0.35791 14.9045 0.360414 14.8922 0.362918C14.8773 0.362918 14.8625 0.362918 14.8477 0.367926C14.8402 0.367926 14.8328 0.367926 14.8254 0.367926C14.8081 0.37043 14.7908 0.375438 14.7734 0.380446C14.7537 0.385454 14.7339 0.387958 14.7141 0.392966C14.7091 0.392966 14.7017 0.392966 14.6968 0.39547C14.6844 0.397974 14.6745 0.402982 14.6621 0.40799C14.625 0.42051 14.5854 0.43303 14.5483 0.448054C14.5384 0.450558 14.5285 0.453062 14.5211 0.45807C14.5137 0.460574 14.5063 0.465582 14.4964 0.47059C14.4345 0.498135 14.3702 0.528183 14.3084 0.565743C14.249 0.600799 14.1921 0.640863 14.1328 0.680927C14.1204 0.690943 14.1055 0.700959 14.0932 0.710975C14.0363 0.753543 13.9794 0.801119 13.9225 0.8512C13.9175 0.856208 13.9101 0.86372 13.9052 0.868728C13.873 0.898776 13.8384 0.928824 13.8062 0.961376C13.7914 0.9764 13.779 0.991424 13.7642 1.00645C13.7394 1.03149 13.7172 1.05653 13.6949 1.08157C13.6801 1.0991 13.6628 1.11663 13.6454 1.13416C13.6207 1.1642 13.596 1.19425 13.5712 1.2243C13.5613 1.23682 13.5514 1.24684 13.5415 1.25936C13.5366 1.26436 13.5317 1.26937 13.5267 1.27688C13.4945 1.31945 13.4624 1.36202 13.4302 1.40709C13.4179 1.42462 13.4055 1.44465 13.3931 1.46469C13.3857 1.4747 13.3783 1.48472 13.3709 1.49724C13.3634 1.50976 13.3535 1.52228 13.3461 1.5348C13.3214 1.57486 13.2967 1.61493 13.2719 1.65749C13.2595 1.67753 13.2472 1.70006 13.2373 1.7226C13.2323 1.73261 13.2274 1.74013 13.2224 1.75014C13.2175 1.76016 13.2101 1.77017 13.2051 1.78269C13.1829 1.82276 13.1631 1.86533 13.1433 1.90789C13.1284 1.93794 13.1161 1.96799 13.1012 1.99804C13.0988 2.00555 13.0938 2.01306 13.0913 2.02057C13.0889 2.02558 13.0864 2.03309 13.0839 2.0381C13.0641 2.08317 13.0468 2.13075 13.027 2.17582C13.0122 2.21839 12.9949 2.25846 12.9825 2.30353L9.82356 11.6585C9.79883 11.7336 9.77161 11.8062 9.73946 11.8788C9.73698 11.8863 9.73451 11.8938 9.72956 11.9013C9.69988 11.969 9.66772 12.0391 9.63556 12.1042C9.63061 12.1142 9.62567 12.1267 9.61825 12.1367C9.58609 12.2018 9.54898 12.2644 9.51188 12.327C9.50446 12.3395 9.49703 12.3521 9.48961 12.3646C9.45003 12.4272 9.41046 12.4898 9.3684 12.5524C9.36346 12.5574 9.35851 12.5649 9.35604 12.5699C9.31893 12.6225 9.27935 12.6751 9.23977 12.7252C9.22493 12.7452 9.21009 12.7627 9.19277 12.7828C9.16309 12.8178 9.1334 12.8504 9.10372 12.8829C9.07651 12.913 9.05177 12.9405 9.02456 12.9681C8.98993 13.0031 8.95777 13.0357 8.92314 13.0682C8.90582 13.0832 8.89098 13.1008 8.87367 13.1158C8.81924 13.1634 8.7673 13.2084 8.7104 13.251L1.60349 18.6096C1.5367 18.6597 1.47239 18.7147 1.40807 18.7723C1.39323 18.7874 1.37592 18.7999 1.36107 18.8149C1.34623 18.8299 1.32892 18.8425 1.31407 18.8575C1.28439 18.8875 1.2547 18.9201 1.22502 18.9526C1.20523 18.9727 1.18544 18.9927 1.16813 19.0127C1.16318 19.0202 1.15576 19.0252 1.15081 19.0328C1.11123 19.0803 1.07165 19.1279 1.03455 19.1755C1.02713 19.1855 1.0197 19.1955 1.01228 19.2055C1.00239 19.2181 0.994963 19.2281 0.987542 19.2406C0.970226 19.2631 0.955384 19.2857 0.938068 19.3082C0.908384 19.3508 0.881174 19.3908 0.853963 19.4334C0.851489 19.4384 0.846542 19.4434 0.844068 19.4509C0.839121 19.4584 0.836647 19.4659 0.8317 19.4735C0.814384 19.501 0.797068 19.5285 0.779752 19.5586C0.755016 19.5987 0.732752 19.6412 0.710489 19.6838C0.708015 19.6888 0.705542 19.6963 0.700594 19.7013C0.695647 19.7088 0.693173 19.7163 0.6907 19.7239C0.675857 19.7514 0.661015 19.7815 0.646173 19.8115C0.626384 19.8541 0.606594 19.8991 0.586805 19.9417C0.586805 19.9467 0.581857 19.9517 0.579384 19.9567C0.57691 19.9642 0.574436 19.9718 0.569489 19.9793C0.55712 20.0118 0.542278 20.0419 0.52991 20.0744C0.512594 20.122 0.495278 20.1721 0.477962 20.2197C0.460647 20.2722 0.445804 20.3223 0.430962 20.3749C0.426015 20.3974 0.421068 20.42 0.41612 20.44C0.411173 20.46 0.406225 20.4801 0.401278 20.5001C0.396331 20.5176 0.391383 20.5352 0.38891 20.5502C0.381489 20.5852 0.376541 20.6203 0.371594 20.6579C0.366646 20.6879 0.361699 20.7154 0.356752 20.7455C0.356752 20.753 0.354278 20.763 0.351804 20.7705C0.344383 20.8256 0.34191 20.8782 0.339436 20.9308C0.339436 20.9433 0.336962 20.9583 0.336962 20.9709C0.334488 21.0435 0.336962 21.1161 0.339436 21.1837C0.339436 21.2037 0.344383 21.2213 0.346857 21.2413C0.351804 21.2889 0.359225 21.3364 0.366646 21.384C0.371594 21.4066 0.376541 21.4291 0.383962 21.4516C0.393857 21.4917 0.406225 21.5292 0.418594 21.5668C0.426015 21.5893 0.43591 21.6119 0.445804 21.6319C0.460647 21.667 0.477962 21.6995 0.497752 21.7296C0.51012 21.7496 0.520015 21.7671 0.532384 21.7847C0.554647 21.8172 0.579384 21.8448 0.606594 21.8723C0.618963 21.8848 0.631331 21.8998 0.6437 21.9124C0.685752 21.9499 0.732752 21.985 0.782226 22.0125L7.18414 25.7785C7.13219 25.751 7.08766 25.7159 7.04561 25.6784C7.03077 25.6659 7.02087 25.6508 7.0085 25.6383C6.98129 25.6108 6.95656 25.5807 6.93429 25.5507C6.92192 25.5332 6.90956 25.5131 6.89966 25.4956C6.87987 25.463 6.86256 25.4305 6.84771 25.3954C6.83782 25.3754 6.82792 25.3529 6.8205 25.3303C6.80566 25.2928 6.79577 25.2552 6.78587 25.2151C6.78092 25.1926 6.7735 25.1701 6.76856 25.1475C6.75866 25.1025 6.75371 25.0549 6.74877 25.0048C6.74877 24.9848 6.74382 24.9673 6.74135 24.9472C6.7364 24.8771 6.73392 24.807 6.73887 24.7344C6.73887 24.7219 6.74135 24.7068 6.74135 24.6943C6.74382 24.6342 6.75124 24.5716 6.75866 24.509C6.76361 24.4815 6.76856 24.4514 6.7735 24.4214C6.7834 24.3688 6.79082 24.3162 6.80319 24.2636C6.80814 24.2436 6.81308 24.2236 6.81803 24.201C6.83535 24.1284 6.85514 24.0533 6.87987 23.9807C6.90708 23.9005 6.93677 23.8204 6.96892 23.7403C6.9714 23.7328 6.97387 23.7253 6.97882 23.7178C7.01098 23.6401 7.04808 23.5625 7.08766 23.4849C7.09014 23.4774 7.09508 23.4699 7.09756 23.4623C7.13714 23.3847 7.17919 23.3096 7.22619 23.237C7.23114 23.2295 7.23361 23.222 7.23856 23.2144C7.28308 23.1443 7.33008 23.0742 7.37956 23.0066C7.38698 22.9941 7.39687 22.9841 7.40429 22.9716C7.45377 22.9039 7.50572 22.8413 7.56014 22.7787C7.57745 22.7587 7.59724 22.7387 7.61703 22.7187C7.66156 22.6711 7.70608 22.626 7.75061 22.5809C7.76545 22.5659 7.78029 22.5509 7.79761 22.5384C7.85945 22.4808 7.92377 22.4257 7.99303 22.3756L15.1 17.017C15.1544 16.9745 15.2088 16.9294 15.2632 16.8818C15.2805 16.8668 15.2954 16.8518 15.3127 16.8342C15.3374 16.8117 15.3597 16.7917 15.3844 16.7691C15.3943 16.7591 15.4042 16.7466 15.4166 16.7341C15.4438 16.7065 15.4685 16.6765 15.4958 16.6489C15.5131 16.6314 15.5304 16.6139 15.5452 16.5939C15.5576 16.5788 15.57 16.5638 15.5823 16.5463C15.5972 16.5287 15.612 16.5087 15.6293 16.4887C15.6417 16.4737 15.6541 16.4611 15.664 16.4461C15.6912 16.4111 15.7184 16.3735 15.7456 16.3359C15.7505 16.3309 15.7555 16.3234 15.758 16.3184C15.758 16.3184 15.7604 16.3134 15.7629 16.3134C15.7926 16.2708 15.8198 16.2283 15.847 16.1857C15.8569 16.1682 15.8693 16.1506 15.8792 16.1331C15.8866 16.1206 15.894 16.1081 15.9014 16.0981C15.9089 16.0855 15.9163 16.073 15.9237 16.0605C15.9484 16.0204 15.9707 15.9779 15.993 15.9353C15.9979 15.9253 16.0029 15.9153 16.0078 15.9053C16.0128 15.8952 16.0177 15.8827 16.0251 15.8727C16.035 15.8502 16.0474 15.8301 16.0573 15.8076C16.0771 15.765 16.0969 15.7225 16.1142 15.6799C16.1142 15.6749 16.1167 15.6724 16.1191 15.6674C16.1216 15.6599 16.1241 15.6523 16.1265 15.6473C16.1414 15.6148 16.1538 15.5797 16.1661 15.5472C16.181 15.5071 16.1958 15.4671 16.2082 15.427L19.3671 6.07206C19.3992 5.9744 19.4363 5.88175 19.4759 5.7891C19.4784 5.78159 19.4833 5.77408 19.4858 5.76907C19.5229 5.68394 19.565 5.6013 19.607 5.52118L19.6268 5.50615Z" fill="#EFF3FA"/>
<path d="M20.7079 4.32452C21.2348 4.01653 21.7617 4.02905 22.0363 4.50981L25.2372 10.1463C25.4549 10.5269 25.8705 10.6346 26.3529 10.4368L33.4672 7.48207C34.6793 6.97626 35.1691 8.42608 34.2934 9.93349L29.1655 18.7751C28.8191 19.3736 28.6608 20.0347 28.7449 20.5455L29.9843 28.0725C30.15 29.0891 29.3955 30.4338 28.5347 30.9371C28.3071 31.0698 28.0721 31.1449 27.847 31.1374L21.4748 30.9646C21.2596 30.9596 21.0221 31.0297 20.7871 31.17C20.5521 31.3102 20.3146 31.5105 20.0994 31.7684L13.7494 39.3756C13.5243 39.646 13.2893 39.8464 13.0617 39.9791C12.2009 40.4824 11.439 40.0241 11.5998 38.8172L12.7921 29.8704C12.8737 29.2644 12.713 28.7887 12.3642 28.5984L7.20163 25.7713C6.321 25.2906 6.80089 23.2748 8.013 22.3634L15.1199 17.0048C15.5998 16.6417 16.0153 16.0483 16.2305 15.4148L19.3894 6.05979C19.6591 5.26352 20.1835 4.63501 20.7104 4.32702L20.7079 4.32452Z" fill="#EFF3FA"/>
<path d="M0 20.9436V20.8986C0.00742107 20.8385 0.00989475 20.7759 0.0222632 20.6857L0.0346316 20.6131L0.0445264 20.5555C0.0494738 20.5255 0.0544211 20.4954 0.0593685 20.4654L0.106369 20.2676C0.121211 20.21 0.138527 20.1524 0.150895 20.1248C0.150895 20.1198 0.153369 20.1148 0.155842 20.1098C0.155842 20.1048 0.158316 20.0973 0.16079 20.0923C0.178106 20.0397 0.197895 19.9846 0.217685 19.932L0.262211 19.8244C0.262211 19.8244 0.277053 19.7868 0.279527 19.7843C0.299316 19.7367 0.32158 19.6891 0.343843 19.6416L0.393316 19.5414C0.393316 19.5414 0.410632 19.5063 0.413106 19.5038C0.437843 19.4588 0.46258 19.4137 0.487317 19.3686L0.568948 19.2334C0.598633 19.1858 0.628317 19.1408 0.660475 19.0957L0.722317 19.0106C0.722317 19.0106 0.742107 18.983 0.74458 18.9805L0.769317 18.948C0.81137 18.8929 0.853423 18.8403 0.917738 18.7677L1.00679 18.67C1.03153 18.6425 1.05379 18.6174 1.081 18.5924L1.18242 18.4972C1.25416 18.4321 1.3259 18.3695 1.40258 18.3119L8.50949 12.9534C8.55649 12.9183 8.60349 12.8782 8.65049 12.8357C8.65049 12.8357 8.69502 12.7956 8.69502 12.7931C8.7247 12.7656 8.75686 12.7355 8.78654 12.703C8.81128 12.6779 8.83354 12.6529 8.8558 12.6278C8.88302 12.5978 8.91023 12.5677 8.93496 12.5377L8.97702 12.4876C9.01412 12.4425 9.04875 12.395 9.09328 12.3324C9.13038 12.2773 9.16749 12.2197 9.20212 12.1621L9.22191 12.1295C9.25407 12.0745 9.28623 12.0169 9.33075 11.9292C9.36044 11.8691 9.39012 11.809 9.42475 11.7264C9.45196 11.6613 9.4767 11.5962 9.49896 11.5286L12.6579 2.1736C12.6727 2.12603 12.69 2.08096 12.7073 2.03588C12.7271 1.9833 12.7469 1.93322 12.7667 1.88815C12.7667 1.88564 12.789 1.83807 12.789 1.83556L12.831 1.74041C12.8533 1.69283 12.8755 1.64776 12.9003 1.60269L12.9275 1.55511L12.9498 1.51755L12.977 1.46998C13.0042 1.42491 13.0314 1.37983 13.0586 1.33727L13.1501 1.19955C13.1848 1.14947 13.2194 1.10189 13.2689 1.03929C13.2713 1.03679 13.2911 1.01175 13.2936 1.00924L13.3159 0.979192C13.3381 0.951648 13.3604 0.924104 13.3827 0.89656L13.4371 0.836464C13.4643 0.80892 13.489 0.778872 13.5237 0.741312L13.5608 0.701247C13.5954 0.666191 13.6325 0.631135 13.6919 0.578551C13.7562 0.520959 13.8205 0.468375 13.8848 0.420799L13.9318 0.385743C13.9986 0.338166 14.0654 0.29059 14.1347 0.250526C14.2089 0.207958 14.2831 0.170398 14.3449 0.145358C14.3598 0.137846 14.3746 0.130334 14.4216 0.112806C14.4686 0.0927735 14.5156 0.0777494 14.5577 0.0652294C14.575 0.0577174 14.5923 0.0527094 14.6319 0.0426934L14.7184 0.0226613C14.7382 0.0176533 14.758 0.0126453 14.8026 0.00763722C14.8248 0.00513322 14.8446 0.00262921 14.8693 0.000125201C14.8792 0.000125201 14.9163 -0.00488281 14.9238 -0.00488281H15.0153C15.0153 -0.00488281 15.045 -0.00488281 15.0549 -0.00488281C15.0969 -0.0023788 15.139 0.00262921 15.1959 0.0126453C15.2305 0.0201573 15.2651 0.0276693 15.2948 0.0351813C15.3097 0.0401893 15.3245 0.0451974 15.369 0.0602214C15.3764 0.0627254 15.3987 0.0702374 15.4086 0.0752454C15.4457 0.0902695 15.4828 0.107798 15.5298 0.135342C15.5298 0.135342 21.9441 3.90888 21.9515 3.91389C22.1074 4.01154 22.2385 4.14927 22.3399 4.32455L22.9534 5.40628L22.7827 5.1058L26.9335 3.38304C27.0003 3.3555 27.0646 3.33296 27.1166 3.32044L27.1537 3.30792C27.1537 3.30792 27.1883 3.30041 27.1908 3.30041C27.2229 3.2929 27.2526 3.28538 27.2798 3.28038L27.3169 3.27286C27.3169 3.27286 27.3516 3.26786 27.354 3.26786C27.3788 3.26535 27.4035 3.26285 27.4258 3.26034L27.4703 3.25533C27.4703 3.25533 27.4777 3.25533 27.4852 3.25533C27.495 3.25533 27.5049 3.25533 27.5049 3.25533H27.6014C27.6014 3.25533 27.641 3.26034 27.6435 3.26034L27.6855 3.26535C27.6855 3.26535 27.7152 3.26786 27.7276 3.27036L27.8067 3.28789C27.8067 3.28789 27.8315 3.2929 27.8414 3.2954C27.8686 3.30291 27.8933 3.31293 27.9329 3.32795C27.9403 3.33046 27.9477 3.33296 27.9552 3.33546C27.9923 3.35049 28.0294 3.37052 28.0764 3.39556L34.4511 7.14656C34.5599 7.20666 34.6613 7.28679 34.7479 7.38945C35.255 7.98039 35.1932 9.06964 34.5945 10.1013L29.4666 18.9429C29.1648 19.4638 29.0188 20.0522 29.0881 20.4754L30.3274 28.0024C30.5278 29.2294 29.6348 30.6867 28.7072 31.2301C28.4128 31.4029 28.1159 31.4855 27.8364 31.478L21.4642 31.3052C21.3232 31.3002 21.1426 31.3553 20.9596 31.463C20.7542 31.5832 20.5489 31.7635 20.3634 31.9838L14.0134 39.591C13.7686 39.884 13.5063 40.1118 13.2342 40.2721C12.9498 40.4373 12.6653 40.5225 12.4006 40.5225C12.1978 40.5225 12.0048 40.4724 11.8341 40.3722C11.8341 40.3722 11.8317 40.3722 11.8292 40.3722L5.42975 36.6062C5.37285 36.5712 5.31596 36.5311 5.26401 36.486C5.25906 36.481 5.20959 36.4309 5.20464 36.4259C5.17496 36.3984 5.14775 36.3683 5.12301 36.3358C5.10569 36.3157 5.09085 36.2932 5.06611 36.2506C5.04632 36.2206 5.02654 36.1905 5.00922 36.158C4.99685 36.1355 4.98696 36.1104 4.96469 36.0578C4.94985 36.0253 4.93501 35.9952 4.92264 35.9602C4.91522 35.9351 4.9078 35.9101 4.90038 35.8825L5.2368 35.7974L4.88801 35.845C4.87811 35.8124 4.87069 35.7799 4.86327 35.7448C4.85832 35.7198 4.85585 35.6922 4.8509 35.6647L5.19722 35.6246L4.84596 35.6171C4.84101 35.5846 4.83606 35.5495 4.83359 35.5145C4.83359 35.4869 4.83359 35.4569 4.83359 35.4268V35.3717C4.83359 35.3367 4.83111 35.3016 4.83359 35.2641C4.83359 35.234 4.83853 35.204 4.84101 35.1714L4.84596 35.1088C4.84596 35.0763 4.8509 35.0437 4.85585 34.9911L6.04817 26.0443C6.05064 26.0218 6.05312 25.9992 6.05312 25.9767L6.06301 25.8565C6.06301 25.8365 6.06301 25.8164 6.06301 25.7639C6.06301 25.7639 6.06301 25.7288 6.06301 25.7263V25.6887C6.06301 25.6712 6.05806 25.6537 6.05312 25.6061C6.05312 25.6036 6.0457 25.5435 6.0457 25.541C6.04322 25.526 6.03827 25.511 6.02838 25.4709L0.638212 22.3008C0.566475 22.2608 0.499685 22.2132 0.435369 22.1556C0.41558 22.1381 0.398264 22.1205 0.376001 22.0955C0.338895 22.0554 0.30179 22.0129 0.267158 21.9653C0.252316 21.9427 0.237474 21.9202 0.217685 21.8877C0.190474 21.8426 0.168211 21.7975 0.145948 21.7499C0.133579 21.7199 0.121211 21.6923 0.111316 21.6623C0.0940002 21.6147 0.079158 21.5646 0.0618422 21.4995C0.0544211 21.4745 0.0494738 21.452 0.0445264 21.4269C0.032158 21.3693 0.0247369 21.3117 0.0173158 21.2391C0.0173158 21.2316 0.0123684 21.189 0.00989475 21.1815C0.00494738 21.0989 0.00247369 21.0163 0.00494738 20.9286L0 20.9436ZM27.7251 4.01405C27.7251 4.01405 27.7078 4.00403 27.6979 3.99902C27.6905 3.99902 27.6855 3.99402 27.6806 3.99151L27.6756 3.9865C27.6756 3.9865 27.6509 3.97899 27.6385 3.97649C27.6385 3.97649 27.6286 3.97398 27.6262 3.97398C27.6212 3.97398 27.5792 3.96647 27.5717 3.96647C27.5668 3.96647 27.5223 3.96647 27.5148 3.96647C27.5099 3.96647 27.4901 3.96647 27.4777 3.96647H27.4406C27.4406 3.96647 27.4109 3.97398 27.406 3.97649L27.354 3.9865C27.354 3.9865 27.3293 3.99402 27.3219 3.99652C27.2823 4.00904 27.2403 4.02156 27.1982 4.03909L23.1315 5.72679L25.5384 9.96607C25.6992 10.249 25.9985 10.199 26.2186 10.1063L33.1746 7.21918L27.7226 4.01155L27.7251 4.01405ZM12.1607 39.7613C12.3289 39.8739 12.5985 39.8414 12.8879 39.6736C13.0908 39.5559 13.2911 39.3781 13.4841 39.1478L19.834 31.5406C20.069 31.2576 20.3387 31.0248 20.6132 30.8645C20.8952 30.6993 21.1847 30.6116 21.4518 30.6116C21.4617 30.6116 21.4741 30.6116 21.484 30.6116L27.8562 30.7844C28.012 30.7844 28.1803 30.7368 28.3608 30.6316C29.0733 30.2135 29.7906 29.0316 29.6422 28.1301L28.4029 20.6006C28.3064 20.0122 28.482 19.261 28.8679 18.5949L33.9959 9.75323C34.4807 8.91689 34.4758 8.15317 34.2235 7.8602C34.0924 7.70746 33.8821 7.68993 33.6001 7.80762L26.4858 10.7624C25.8377 11.0303 25.244 10.86 24.9373 10.3217L21.7363 4.68512C21.6893 4.60499 21.6349 4.5474 21.5706 4.51235C21.5582 4.50483 21.5434 4.49983 21.5211 4.49231C21.5087 4.48731 21.4964 4.4848 21.484 4.4823C21.4716 4.47979 21.4568 4.47729 21.4419 4.47479C21.432 4.47479 21.4221 4.47479 21.4098 4.47479C21.4098 4.47479 21.4098 4.47479 21.4073 4.47479C21.3999 4.47479 21.39 4.47479 21.3801 4.47479C21.3628 4.47479 21.3455 4.47479 21.2985 4.47979C21.2811 4.47979 21.2638 4.4848 21.2465 4.48981C21.2465 4.48981 21.2119 4.49732 21.2045 4.49732C21.1921 4.49983 21.1772 4.50483 21.1624 4.50984C21.1327 4.51986 21.1055 4.52987 21.0758 4.53989L21.0338 4.55742C20.9892 4.57745 20.9447 4.59748 20.9002 4.62503C20.8952 4.62753 20.8878 4.63254 20.8829 4.63504C20.8705 4.64255 20.8581 4.65007 20.8458 4.65758C20.8087 4.68011 20.7716 4.70515 20.7345 4.7327L20.6998 4.75774C20.6504 4.7953 20.6009 4.83536 20.5366 4.89296C20.4945 4.93052 20.4525 4.97308 20.4129 5.01315L20.351 5.08076C20.3139 5.12082 20.2768 5.16339 20.2422 5.20846C20.2422 5.20846 20.2249 5.231 20.215 5.24352C20.1977 5.26605 20.1779 5.29109 20.1606 5.31864C20.1556 5.32364 20.1531 5.33116 20.1482 5.33616C20.1284 5.36371 20.1086 5.39376 20.0864 5.42631C20.0789 5.43883 20.0715 5.44884 20.0641 5.46136C20.0567 5.47138 20.0517 5.4814 20.0443 5.49141C20.0295 5.51645 20.0121 5.54149 19.9973 5.56653C19.9899 5.57905 19.9849 5.58907 19.9775 5.60159C19.9602 5.63164 19.9429 5.66169 19.9256 5.69424C19.9256 5.69925 19.9206 5.70175 19.9206 5.70676C19.9033 5.73681 19.8885 5.76936 19.8736 5.80191C19.8662 5.81443 19.8612 5.82695 19.8538 5.84197C19.8415 5.86952 19.8266 5.89957 19.8142 5.92711C19.7994 5.96467 19.7821 5.99973 19.7697 6.03729C19.7697 6.04229 19.7648 6.0473 19.7648 6.04981C19.7524 6.08236 19.74 6.11741 19.7277 6.15247C19.7252 6.15998 19.7202 6.17 19.7178 6.17751L18.2212 10.6071L16.5589 15.5325C16.544 15.5776 16.5292 15.6201 16.5119 15.6627C16.5069 15.6752 16.502 15.6877 16.497 15.6978C16.4847 15.7303 16.4723 15.7629 16.4574 15.7929C16.455 15.8004 16.4525 15.8079 16.45 15.8079C16.4302 15.8555 16.408 15.9031 16.3882 15.9456L16.356 16.0108C16.3486 16.0233 16.3437 16.0358 16.3362 16.0483C16.3362 16.0483 16.3189 16.0834 16.3189 16.0859C16.309 16.1059 16.2991 16.1234 16.2868 16.1435C16.2818 16.1535 16.2744 16.166 16.2694 16.176C16.2596 16.191 16.2521 16.2086 16.2422 16.2236C16.2422 16.2236 16.2274 16.2486 16.22 16.2612L16.2101 16.2762L16.2002 16.2912L16.1581 16.3613C16.1284 16.4089 16.0963 16.4565 16.0443 16.5291C16.0147 16.5717 15.985 16.6117 15.9553 16.6543L15.9108 16.7119C15.8984 16.7294 15.8836 16.7469 15.8687 16.762L15.8539 16.7795C15.8539 16.7795 15.8267 16.812 15.8242 16.8145L15.8069 16.8321C15.7623 16.8821 15.7178 16.9297 15.6733 16.9773C15.6659 16.9848 15.6486 17.0023 15.6461 17.0073C15.6411 17.0124 15.6337 17.0174 15.6288 17.0224C15.5323 17.12 15.4284 17.2077 15.3245 17.2878L8.21759 22.6464C8.18296 22.6739 8.14833 22.7015 8.11617 22.729C8.09391 22.749 8.07165 22.7666 8.04938 22.7866L8.00733 22.8267C7.96528 22.8667 7.92817 22.9068 7.88859 22.9468C7.88859 22.9468 7.86386 22.9719 7.86386 22.9744L7.83912 23.0019C7.78965 23.057 7.74265 23.1146 7.69812 23.1747C7.69812 23.1747 7.68328 23.1947 7.67586 23.2048C7.63133 23.2674 7.58928 23.33 7.53733 23.4126C7.49528 23.4802 7.45817 23.5478 7.41117 23.6355C7.37654 23.7056 7.34191 23.7757 7.3048 23.8658C7.28996 23.8984 7.27759 23.9334 7.26522 23.966C7.26522 23.971 7.26028 23.9785 7.2578 23.9835C7.24543 24.0136 7.23554 24.0436 7.22564 24.0762C7.2207 24.0937 7.21575 24.1087 7.2108 24.1262C7.19596 24.1788 7.18112 24.2314 7.16875 24.2815L7.15638 24.3366C7.14649 24.3816 7.13907 24.4292 7.12422 24.5043L7.1168 24.5494C7.1168 24.5644 7.11185 24.582 7.11185 24.597C7.10938 24.627 7.10691 24.6596 7.10196 24.6997C7.10196 24.7222 7.09949 24.7422 7.09949 24.7648C7.09949 24.7823 7.09949 24.7998 7.09949 24.8148C7.09949 24.8274 7.09949 24.8424 7.09949 24.8549C7.09949 24.8774 7.09949 24.9 7.10443 24.925C7.10443 24.93 7.10938 24.9576 7.10938 24.9601C7.11433 24.9976 7.1168 25.0327 7.12422 25.0677L7.13659 25.1178C7.14401 25.1454 7.15143 25.1729 7.16133 25.1954L7.17864 25.2405C7.18854 25.2631 7.20091 25.2831 7.2108 25.3031L7.23307 25.3382C7.24543 25.3557 7.26028 25.3707 7.29491 25.4083C7.31222 25.4233 7.32707 25.4358 7.34438 25.4458C7.3518 25.4509 7.35675 25.4534 7.36417 25.4584L7.37407 25.4659L12.5317 28.2904C13.0141 28.5533 13.2417 29.1618 13.1402 29.9205L11.9479 38.8673C11.891 39.298 11.9702 39.6336 12.1631 39.7638L12.1607 39.7613ZM5.54106 35.1113C5.54106 35.1313 5.53859 35.1489 5.53611 35.1664L5.52622 35.2991C5.52622 35.3191 5.52622 35.3392 5.52622 35.3918C5.52622 35.3918 5.52622 35.4293 5.52622 35.4318V35.4694C5.52622 35.4869 5.53117 35.5019 5.53859 35.5495C5.53859 35.552 5.54601 35.6121 5.54601 35.6171L5.5658 35.6847C5.5658 35.6847 5.57817 35.7348 5.57817 35.7373C5.58311 35.7498 5.58806 35.7599 5.6029 35.7924C5.6029 35.7974 5.61775 35.8275 5.62022 35.8325L5.6499 35.8775L5.66722 35.9076L5.71917 35.9627C5.73648 35.9777 5.75627 35.9927 5.77606 36.0052L11.2305 39.2154C11.2256 39.0752 11.2305 38.9249 11.2528 38.7697L12.4451 29.8229C12.5045 29.3746 12.4105 29.0241 12.1953 28.9064L7.0327 26.0794C7.01785 26.0719 7.00054 26.0618 6.9857 26.0518L6.75564 25.9166C6.75564 25.9366 6.75317 25.9592 6.7507 25.9792L6.74575 26.0418C6.74328 26.0769 6.7408 26.1144 6.73585 26.152L5.54354 35.1138L5.54106 35.1113Z" fill="#035BE8"/>
</g>
</svg>
