<svg width="78" height="74" viewBox="0 0 78 74" fill="none" xmlns="http://www.w3.org/2000/svg">
<mask id="mask0_1_1353" style="mask-type:luminance" maskUnits="userSpaceOnUse" x="0" y="0" width="78" height="74">
<path d="M78 0H0V74H78V0Z" fill="white"/>
</mask>
<g mask="url(#mask0_1_1353)">
<path fill-rule="evenodd" clip-rule="evenodd" d="M46.9081 33.8863C46.8555 34.411 46.641 34.7895 46.2031 35.0862L58.2749 41.9374C58.7084 41.6407 58.9273 41.2536 58.9798 40.7375V33.7272L46.9081 26.876V33.8863ZM58.866 54.4572L46.7942 47.6059C46.8774 47.7608 46.8906 47.8038 46.9125 47.9844V55.0206L58.9842 61.8718V54.8356C58.9623 54.6507 58.9623 54.612 58.866 54.4572Z" fill="#035BE8"/>
<path fill-rule="evenodd" clip-rule="evenodd" d="M47.157 34.9572L58.1998 41.2192C58.3005 41.0687 58.3661 40.9053 58.388 40.6859V34.0669L47.4897 27.8953V33.9379C47.4546 34.3207 47.3365 34.6605 47.157 34.9572ZM58.2698 42.5224C58.1691 42.5224 58.0684 42.4966 57.9677 42.4449L45.896 35.5937C45.7296 35.4948 45.6113 35.3099 45.5938 35.112C45.5938 34.9142 45.6945 34.7207 45.8609 34.6088C46.1455 34.4153 46.268 34.196 46.2943 33.8605V26.876C46.2943 26.6738 46.4126 26.4717 46.5965 26.3685C46.7848 26.2652 47.0037 26.2652 47.1833 26.3685L59.2725 33.2197C59.4608 33.3229 59.5615 33.5164 59.5615 33.7272V40.7375C59.509 41.473 59.1893 42.0278 58.6026 42.4191C58.5019 42.4837 58.3837 42.5224 58.2698 42.5224ZM47.4897 54.6808L58.388 60.8525V54.8657L47.4897 48.6854V54.6808ZM58.9748 62.4524C58.8741 62.4524 58.7733 62.4266 58.6726 62.375L46.6009 55.5238C46.4126 55.4205 46.2988 55.2313 46.2988 55.0206V47.9844C46.1455 47.7565 46.1674 47.4253 46.3688 47.2318C46.5527 47.0382 46.8417 46.9651 47.0738 47.0984L59.1455 53.9497C59.2331 53.9927 59.2988 54.0572 59.347 54.1389C59.5309 54.3926 59.5484 54.5432 59.5659 54.7625V61.8718C59.5659 62.0825 59.4652 62.2717 59.2769 62.375C59.1762 62.4309 59.0799 62.4524 58.9792 62.4524H58.9748Z" fill="#035BE8"/>
<path fill-rule="evenodd" clip-rule="evenodd" d="M77.4074 37.3485L65.3314 30.5015L46.9062 26.876L58.9781 33.7272L77.4074 37.3485Z" fill="#035BE8"/>
<path fill-rule="evenodd" clip-rule="evenodd" d="M59.1976 33.1677L73.9753 36.075L65.1174 31.0517L50.3397 28.1486L59.1976 33.1677ZM77.4081 37.933C77.3731 37.933 77.3205 37.9287 77.2899 37.9244L58.8604 34.2988C58.7904 34.2902 58.7378 34.2644 58.6722 34.2343L46.6004 27.3831C46.3465 27.2368 46.2326 26.9401 46.3333 26.6734C46.4516 26.4025 46.7186 26.2519 47.0208 26.3035L65.4502 29.9291C65.5027 29.9377 65.5684 29.9635 65.6166 29.9937L77.7058 36.8449C77.9598 36.9911 78.0605 37.2879 77.9598 37.5545C77.881 37.7824 77.6402 37.933 77.4081 37.933Z" fill="#035BE8"/>
<path fill-rule="evenodd" clip-rule="evenodd" d="M58.2676 41.9372L46.1959 35.0859L13.3916 53.687C12.4633 54.259 11.9642 54.8525 11.3906 55.7514L23.4623 62.6026C24.0359 61.6951 24.5351 61.1102 25.4633 60.5382L58.2676 41.9328V41.9372Z" fill="#035BE8"/>
<path fill-rule="evenodd" clip-rule="evenodd" d="M12.2311 55.554L23.2783 61.8203C23.7512 61.1364 24.2853 60.5773 25.1435 60.044L57.0721 41.9332L46.1957 35.7616L13.6848 54.1949C13.0236 54.6035 12.6252 55.0164 12.2355 55.554H12.2311ZM23.4622 63.1922C23.3615 63.1922 23.2651 63.1621 23.1776 63.1148L11.0883 56.2636C10.9526 56.1819 10.8519 56.0529 10.8168 55.9023C10.773 55.7475 10.8037 55.5884 10.8869 55.4507C11.4605 54.5476 12.0122 53.8594 13.0718 53.2014L45.8936 34.5874C46.0775 34.4799 46.2921 34.4842 46.4804 34.5831L58.5696 41.4343C58.7579 41.5376 58.8717 41.7311 58.8717 41.9418C58.8717 42.1526 58.7535 42.3461 58.5696 42.4493L25.7697 61.0504C24.9115 61.5794 24.4736 62.1127 23.9876 62.917C23.8694 63.0976 23.668 63.1965 23.4665 63.1965L23.4622 63.1922Z" fill="#035BE8"/>
<path fill-rule="evenodd" clip-rule="evenodd" d="M23.4574 62.6071L11.3857 55.7559C10.8646 56.6978 10.6151 57.4203 10.5625 58.4869V64.5855C10.5932 65.2865 10.6807 65.7553 11.2018 66.2542L23.2911 73.1054C22.7525 72.6065 22.6693 72.1334 22.6343 71.4367V65.3381C22.6912 64.2672 22.9583 63.5447 23.4618 62.6114L23.4574 62.6071Z" fill="#035BE8"/>
<path fill-rule="evenodd" clip-rule="evenodd" d="M11.6501 56.5728C11.3655 57.1577 11.1947 57.7168 11.1641 58.5167V64.5895C11.1947 65.2045 11.2648 65.497 11.637 65.841L22.0755 71.7461C22.0536 71.6515 22.0536 71.5611 22.0536 71.4708V65.3421C22.0886 64.3142 22.3251 63.5788 22.6972 62.8391L11.6501 56.5771V56.5728ZM23.3015 73.6943C23.1833 73.6943 23.0826 73.6685 22.9994 73.6169L10.9276 66.7657C10.1088 66.0131 10.0037 65.3206 9.96875 64.6196V58.4909C10.0388 57.2394 10.354 56.4136 10.8751 55.4846C10.9408 55.347 11.0765 55.2395 11.2298 55.1965C11.3961 55.1578 11.5713 55.175 11.7026 55.2567L23.7744 62.1036C24.0283 62.2541 24.1422 62.5595 24.0283 62.8305C23.5423 63.7207 23.2884 64.3573 23.2533 65.3679V71.4407C23.2752 72.06 23.354 72.3482 23.7043 72.6922C23.9276 72.8944 23.9583 73.2255 23.7744 73.4621C23.6562 73.6169 23.4723 73.6943 23.3015 73.6943Z" fill="#035BE8"/>
<path fill-rule="evenodd" clip-rule="evenodd" d="M52.5316 0.958999L19.7273 19.5644C19.4733 19.6676 19.3376 19.7149 19.1406 19.5428L31.2123 26.3941C31.4312 26.5618 31.5626 26.5188 31.799 26.4156L64.599 7.81022C65.4397 7.37584 65.9257 7.26831 66.7664 7.74141L54.5195 0.769763C53.7795 0.425697 53.2234 0.606332 52.5316 0.958999Z" fill="#EFF3FA"/>
<path fill-rule="evenodd" clip-rule="evenodd" d="M20.6403 19.7235L31.5167 25.8866L64.3079 7.30274C64.4042 7.25973 64.4918 7.20812 64.5925 7.16941L54.2197 1.27728C53.8343 1.09235 53.4928 1.13106 52.8273 1.47512L20.6403 19.7235ZM31.4861 27.0908C31.2847 27.0908 31.0657 27.0306 30.8468 26.8413L19.0597 20.1751C18.9721 20.1407 18.8583 20.0762 18.7576 19.9944C18.5255 19.8009 18.4729 19.4568 18.6612 19.2074C18.8276 18.9536 19.1779 18.8805 19.4319 19.031H19.445L52.2362 0.451524C52.2362 0.451524 52.2493 0.447224 52.2493 0.438622C52.9367 0.0945562 53.7424 -0.236608 54.767 0.240784L67.0795 7.23393C67.3642 7.39736 67.4649 7.75433 67.2985 8.03388C67.1321 8.31773 66.7599 8.40375 66.4928 8.24892H66.4709C65.8842 7.90916 65.6127 7.95647 64.8727 8.33064L32.0859 26.9231C31.9327 26.9919 31.7313 27.0908 31.4817 27.0908H31.4861Z" fill="#035BE8"/>
<path fill-rule="evenodd" clip-rule="evenodd" d="M31.095 19.0007L19.0189 12.1538L0.59375 36.6728L12.6655 43.524L31.095 19.0007Z" fill="#EFF3FA"/>
<path fill-rule="evenodd" clip-rule="evenodd" d="M1.47381 36.501L12.5034 42.7587L30.2279 19.1859L19.1807 12.9239L1.47381 36.501ZM12.6698 44.1135C12.5691 44.1135 12.4684 44.0877 12.372 44.0317L0.300347 37.1805C0.147097 37.0988 0.0463891 36.9569 0.0113605 36.7978C-0.0192895 36.6343 0.0113605 36.4623 0.112068 36.329L18.5371 11.8057C18.7254 11.5648 19.0581 11.496 19.3121 11.6465L31.4013 18.4977C31.5371 18.5838 31.6553 18.7214 31.6903 18.8848C31.721 19.044 31.6684 19.2203 31.5677 19.3536L13.1383 43.8726C13.0201 44.0274 12.8537 44.1092 12.6654 44.1092L12.6698 44.1135Z" fill="#035BE8"/>
<path fill-rule="evenodd" clip-rule="evenodd" d="M31.8072 38.9137L64.6072 20.304C65.3822 19.8653 66.0871 19.1041 66.6082 18.2396C67.1117 17.3665 67.427 16.3945 67.427 15.5086V9.41C67.427 7.64667 66.1484 6.93273 64.6028 7.8101L31.8029 26.4155C31.4175 26.6348 31.0935 26.4542 31.0935 26.0155V19.0008L12.6641 43.5242L31.0935 47.1411V40.105C31.0935 39.6663 31.4175 39.1287 31.8029 38.9094L31.8072 38.9137Z" fill="white"/>
<path fill-rule="evenodd" clip-rule="evenodd" d="M13.7156 43.1284L30.4987 46.4228V40.1049C30.4987 39.4598 30.9365 38.7243 31.5057 38.4018L64.3144 19.7964C64.9668 19.4222 65.6236 18.7513 66.0921 17.9384C66.565 17.1299 66.8321 16.2439 66.8321 15.4999V9.40132C66.8321 8.77339 66.6482 8.30891 66.3111 8.11537C65.9783 7.92613 65.4704 7.99494 64.9187 8.30891L32.0968 26.9143C31.7247 27.1293 31.3437 27.1422 31.0022 26.9573C30.6826 26.7766 30.4987 26.4283 30.4987 26.0068V20.7727L13.7156 43.1198V43.1284ZM31.0985 47.7303C31.0679 47.7303 31.0153 47.726 30.9803 47.7174L12.5509 44.1047C12.3495 44.066 12.1831 43.924 12.1174 43.7391C12.0517 43.5499 12.0649 43.3391 12.1831 43.18L30.6125 18.6567C30.7789 18.4545 31.0504 18.3685 31.2868 18.4459C31.5189 18.5277 31.694 18.7513 31.694 18.9964V25.7918L64.3144 7.29821C65.2514 6.76061 66.1797 6.6961 66.9022 7.10898C67.6203 7.51755 68.0275 8.33471 68.0275 9.40562V15.5042C68.0275 16.459 67.7034 17.5299 67.1167 18.5277C66.53 19.5298 65.7594 20.3383 64.9187 20.8114L32.0968 39.4125C31.8954 39.5329 31.6984 39.8727 31.6984 40.1049V47.141C31.6984 47.3174 31.6283 47.4808 31.4751 47.5926C31.3744 47.6787 31.243 47.726 31.1029 47.726L31.0985 47.7303Z" fill="#035BE8"/>
<path fill-rule="evenodd" clip-rule="evenodd" d="M25.4692 73.0409L58.2735 54.4355C58.6588 54.2119 58.9784 54.3924 58.9784 54.8354V61.8717L77.4079 37.3526L58.9784 33.7271V40.7374C58.9784 41.1804 58.6588 41.718 58.2735 41.9374L25.4692 60.5427C24.6985 60.9857 23.9892 61.7427 23.4682 62.6071C22.9646 63.4759 22.6406 64.4521 22.6406 65.338V71.4366C22.6406 72.3227 22.9646 72.942 23.4682 73.2302C23.9892 73.5183 24.6985 73.4796 25.4692 73.0409Z" fill="#EFF3FA"/>
<path fill-rule="evenodd" clip-rule="evenodd" d="M59.5626 34.4455V40.7376C59.5626 41.387 59.1422 42.1225 58.5686 42.445L25.7687 61.0461C25.1119 61.4203 24.4551 62.0912 23.9866 62.8998C23.5137 63.7126 23.2466 64.5986 23.2466 65.3383V71.4369C23.2466 72.0648 23.4349 72.5336 23.7677 72.7229C24.1004 72.9164 24.6084 72.8476 25.1601 72.5336L57.9644 53.9326C58.3497 53.7175 58.735 53.7046 59.0546 53.8809C59.3962 54.0616 59.5626 54.4099 59.5626 54.8357V60.087L76.3588 37.7399L59.5626 34.4455ZM24.2012 74.0002C23.8334 74.0002 23.4787 73.9099 23.1766 73.7379C22.4366 73.325 22.0469 72.5078 22.0469 71.4369V65.3383C22.0469 64.3836 22.3709 63.3127 22.9576 62.3149C23.5312 61.3171 24.3194 60.5085 25.1557 60.0311L57.96 41.4257C58.1789 41.3096 58.3803 40.9699 58.3803 40.7333V33.723C58.3803 33.5509 58.446 33.3789 58.5993 33.2714C58.7306 33.1639 58.9189 33.1209 59.0853 33.151L77.5147 36.7723C77.7161 36.811 77.8825 36.9443 77.9526 37.1335C78.0226 37.3185 78.0051 37.5335 77.8738 37.6926L59.4618 62.2116C59.2955 62.4138 59.024 62.5041 58.7875 62.4224C58.538 62.345 58.3891 62.117 58.3891 61.8719V55.0551L25.7687 73.5486C25.2257 73.854 24.6959 74.0002 24.2012 74.0002Z" fill="#035BE8"/>
</g>
</svg>
