<svg width="101" height="129" viewBox="0 0 101 129" fill="none" xmlns="http://www.w3.org/2000/svg">
<path d="M37.4388 122.262C34.2542 122.28 31.12 121.47 28.3461 119.91C19.1865 114.746 13.9219 101.982 13.9219 84.8881C13.9219 55.3703 29.8174 21.812 49.355 10.0785C57.4402 5.21903 65.4934 4.5712 72.0214 8.2495C81.1811 13.4104 86.4457 26.1772 86.4457 43.2687C86.4457 72.7894 70.5501 106.348 51.0154 118.078C46.956 120.678 42.2619 122.125 37.4388 122.262ZM62.8967 9.0727C58.668 9.22283 54.5604 10.5191 51.0154 12.822C32.3385 24.0424 17.1394 56.3689 17.1394 84.8851C17.1394 100.553 21.9213 112.603 29.9338 117.112C35.4877 120.241 42.2047 119.625 49.3579 115.328C68.0348 104.11 83.234 71.785 83.234 43.2644C83.234 27.5961 78.4521 15.551 70.4396 11.0379C68.1401 9.73915 65.5396 9.06311 62.8967 9.07705V9.0727Z" fill="#1B69FF"/>
<path opacity="0.33" d="M23.5155 116.366C20.3315 116.386 17.1976 115.576 14.4242 114.017C5.25442 108.853 0 96.0893 0 78.9949C0 49.4772 15.8926 15.916 35.4302 4.18251C43.5154 -0.676961 51.5686 -1.3248 58.0966 2.35351C67.2563 7.51443 72.5209 20.2812 72.5209 37.3756C72.5209 66.8934 56.6253 100.455 37.0906 112.185C33.0315 114.784 28.3379 116.23 23.5155 116.366ZM37.0921 6.93038C18.4152 18.1479 3.21604 50.4772 3.21604 78.9935C3.21604 94.6618 7.99357 106.711 16.0017 111.22C21.5556 114.346 28.2727 113.73 35.4259 109.436C54.1028 98.2184 69.3019 65.889 69.3019 37.3727C69.3019 21.7001 64.52 9.65504 56.5075 5.14629C50.9536 2.02017 44.2366 2.63612 37.0863 6.93038H37.0921Z" fill="#1B69FF"/>
<path d="M64.901 18.1278C45.7821 29.612 30.25 62.5283 30.25 91.5634C30.25 120.599 45.7821 134.862 64.901 123.378C84.0198 111.894 99.5519 78.9778 99.5519 49.9427C99.5519 20.9076 84.0184 6.64944 64.901 18.1278Z" fill="white" stroke="black" stroke-width="2"/>
<path d="M66.1733 41.2916C63.8863 42.6611 62.0326 46.5931 62.0326 50.0641C62.0326 53.5352 63.8863 55.2352 66.1733 53.8656C68.4603 52.496 70.314 48.5641 70.314 45.0931C70.314 41.622 68.4603 39.9176 66.1733 41.2916ZM60.6484 65.5614V69.7557L62.0267 68.9252L63.405 68.0948V95.3414L62.0267 96.1675L60.6484 96.998V101.188L62.0267 100.362L63.405 99.5314L68.9299 96.2154L70.3082 95.3849L71.6865 94.5588V90.3646L70.3082 91.195L68.9299 92.0255V60.5918L67.5472 61.4222L62.0224 64.7339L60.6484 65.5614Z" fill="#27292B"/>
</svg>
