<svg width="65" height="100" viewBox="0 0 65 100" fill="none" xmlns="http://www.w3.org/2000/svg">
<path d="M13.7383 94.1195C13.0161 94.1271 12.3045 93.945 11.6748 93.5913C10.1012 92.7029 9.23499 90.8286 9.23499 88.3174V38.0619C9.33884 35.4996 10.0422 32.9973 11.2885 30.756C12.5349 28.5148 14.2895 26.5971 16.4115 25.157L48.3803 5.94089C50.4136 4.71851 52.3735 4.52132 53.8947 5.38151C55.4662 6.27189 56.3325 8.1442 56.3325 10.6554V60.9069C56.2284 63.4694 55.5247 65.9718 54.278 68.2131C53.0313 70.4543 51.2763 72.3719 49.1539 73.8118L17.1862 93.0279C16.1562 93.6958 14.9649 94.073 13.7383 94.1195ZM51.8272 6.36647C50.8749 6.41213 49.9524 6.71268 49.156 7.23672L17.1882 26.4528C13.6316 28.5897 10.7391 33.7971 10.7391 38.0679V88.3195C10.7391 90.2652 11.3327 91.6727 12.4142 92.2854C13.4445 92.8679 14.8661 92.6768 16.4115 91.7451L48.3803 72.5291C51.9358 70.3932 54.8293 65.1847 54.8293 60.9149V10.6594C54.8293 8.71364 54.2337 7.30614 53.1542 6.69545C52.7484 6.47086 52.291 6.35608 51.8272 6.36244V6.36647Z" fill="#1B69FF"/>
<path opacity="0.43" d="M4.5022 89.2568C3.77998 89.2644 3.06843 89.0823 2.43869 88.7286C0.865155 87.8403 -0.00109863 85.9659 -0.00109863 83.4548V33.2033C0.102979 30.6407 0.80663 28.1383 2.05335 25.8971C3.30006 23.6558 5.05508 21.7382 7.17741 20.2983L39.1452 1.08225C41.1795 -0.140134 43.1384 -0.337325 44.6596 0.522871C46.2311 1.41124 47.0974 3.28555 47.0974 5.79672V56.0503C46.9939 58.613 46.2906 61.1157 45.0443 63.3573C43.7979 65.5989 42.0431 67.5169 39.9209 68.9572L7.95211 88.1733C6.92086 88.8389 5.72882 89.2133 4.5022 89.2568ZM42.5931 1.50379C41.6408 1.54926 40.7182 1.84983 39.9219 2.37405L7.95311 21.5901C4.39755 23.727 1.50403 28.9345 1.50403 33.2043V83.4558C1.50403 85.4015 2.09963 86.8111 3.17917 87.4217C4.21043 88.0043 5.62903 87.8131 7.17842 86.8815L39.1462 67.6654C42.7028 65.5295 45.5953 60.3211 45.5953 56.0493V5.80075C45.5953 3.855 45.0017 2.44548 43.9201 1.8348C43.5142 1.61065 43.0567 1.49654 42.5931 1.50379Z" fill="#1B69FF"/>
<path d="M25.4634 31.6563C21.6905 33.924 18.6501 39.394 18.6501 43.9174V94.1669C18.6501 98.6892 21.6895 100.505 25.4634 98.2375L57.4322 79.0214C61.206 76.7537 64.2444 71.2836 64.2444 66.7613V16.5139C64.2444 11.9915 61.205 10.1756 57.4322 12.4433L25.4634 31.6563Z" fill="#FCFCFC" stroke="black" stroke-width="1.5"/>
<path d="M33.2506 41.3467C32.0659 42.1613 31.086 43.2392 30.3877 44.496C29.6895 45.7528 29.2919 47.1543 29.2262 48.5905V78.2818C29.2262 80.955 31.0221 82.0274 33.2506 80.6873L52.1401 69.3348C53.325 68.5204 54.305 67.4425 55.0033 66.1856C55.7015 64.9288 56.099 63.5273 56.1645 62.091V32.3987C56.1645 29.7276 54.3696 28.6531 52.1401 29.9932L33.2506 41.3467ZM33.2506 43.5732L52.1401 32.2196C53.3474 31.4942 54.3082 32.0677 54.3082 33.5154V63.2078C54.2748 63.9816 54.0615 64.7369 53.6851 65.4138C53.3087 66.0907 52.7797 66.6706 52.1401 67.1073L33.2506 78.4599C32.0433 79.1853 31.0824 78.6118 31.0824 77.1651V47.4727C31.1161 46.699 31.3296 45.9437 31.7059 45.2669C32.0822 44.59 32.6111 44.0101 33.2506 43.5732ZM41.7662 43.0943V46.9556L38.8556 46.7745L37.9571 49.2444L40.7742 49.4457L37.9571 53.0323L38.8556 54.4227L41.7662 50.7425V54.6038L43.6245 53.486V49.6257L46.5361 49.8068L47.4336 47.3359L44.6165 47.1347L47.4336 43.549L46.5361 42.1576L43.6245 45.8379V41.9775L41.7662 43.0943ZM34.4901 63.6132C34.214 63.7986 33.9857 64.0467 33.8241 64.3374C33.6625 64.6281 33.5722 64.953 33.5605 65.2853C33.5605 65.9161 33.9629 66.1576 34.4901 65.8397L50.2859 56.3483C50.5617 56.1628 50.7897 55.9145 50.9511 55.6239C51.1125 55.3332 51.2028 55.0085 51.2145 54.6763C51.2145 54.0464 50.812 53.805 50.2859 54.1219L34.4901 63.6132ZM34.4901 69.1809C34.214 69.3662 33.9857 69.6144 33.8241 69.9051C33.6625 70.1957 33.5722 70.5206 33.5605 70.853C33.5605 71.4838 33.9629 71.7242 34.4901 71.4073L42.6958 66.4775C42.9717 66.292 43.1997 66.0437 43.3611 65.753C43.5225 65.4624 43.6127 65.1377 43.6245 64.8054C43.6245 64.1746 43.222 63.9342 42.6958 64.2511L34.4901 69.1809Z" fill="#27292B"/>
</svg>
