<svg width="32" height="38" viewBox="0 0 32 38" fill="none" xmlns="http://www.w3.org/2000/svg">
<path d="M16.1523 38.0011C15.9207 38.0025 15.6923 37.9463 15.4874 37.8375L8.71084 34.298C6.98169 33.4394 5.42167 32.2705 4.10691 30.8483C1.54482 27.9975 0.111175 24.295 0.0790857 20.446L0 7.8388C0.00248501 7.12112 0.226641 6.4221 0.641268 5.8391C1.05589 5.25609 1.64034 4.81814 2.31318 4.58623L14.7589 0.203125C15.5078 -0.0609945 16.3226 -0.0651506 17.0741 0.191304L29.5667 4.42261C30.2438 4.64558 30.8346 5.077 31.2563 5.65631C31.6781 6.23561 31.9094 6.93368 31.918 7.65252L31.999 20.2597C32.0193 24.1061 30.6355 27.8254 28.1118 30.7074C26.8143 32.1406 25.2695 33.3239 23.5528 34.1995L16.8368 37.8286C16.6289 37.939 16.398 37.9978 16.1631 38.0001L16.1523 38.0011ZM11.1061 17.1136C10.7268 17.1119 10.3622 17.2614 10.0915 17.5295C9.83407 17.784 9.68729 18.1314 9.68344 18.4951C9.67959 18.8588 9.81901 19.2092 10.071 19.4692L10.1052 19.5037L13.7122 23.0057C13.9787 23.2659 14.3354 23.4106 14.7062 23.4088H14.7189C15.0943 23.4086 15.4546 23.2591 15.7217 22.9929L23.0626 15.6894C23.3203 15.4351 23.4675 15.0879 23.4717 14.7242C23.4759 14.3604 23.3368 14.0099 23.0851 13.7496L23.0509 13.7151C22.7797 13.4545 22.4191 13.31 22.0447 13.3118C21.6702 13.3136 21.311 13.4617 21.0423 13.725L14.6955 20.033L12.1001 17.5138C11.8319 17.2565 11.476 17.1133 11.1061 17.1136Z" fill="#1B69FF"/>
</svg>
