<svg width="30" height="34" viewBox="0 0 30 34" fill="none" xmlns="http://www.w3.org/2000/svg">
<g filter="url(#filter0_d_1_1466)">
<path d="M8.30532 26.5226C8.37567 26.5246 8.44601 26.5213 8.51576 26.5127H21.5282H21.5569L21.5855 26.5094C22.0316 26.458 22.4415 26.2409 22.7377 25.9027C23.0337 25.5646 23.196 25.129 23.196 24.6792C23.196 24.2293 23.0337 23.7937 22.7377 23.4557C22.4415 23.1174 22.0316 22.9004 21.5855 22.8489L21.5569 22.8456H21.5282H8.83996V22.8433L8.34471 22.8386C8.10489 22.8364 7.86721 22.8823 7.64532 22.9736C7.42344 23.0649 7.22204 23.1996 7.05233 23.3695C6.88264 23.5395 6.74793 23.7413 6.65544 23.9632C6.56295 24.1851 6.51434 24.4231 6.51214 24.6636C6.50995 24.9042 6.55421 25.143 6.64261 25.3666C6.73102 25.5902 6.86198 25.7944 7.0285 25.9675C7.19503 26.1406 7.3939 26.279 7.614 26.3745C7.83248 26.4693 8.06735 26.5197 8.30532 26.5226ZM8.30532 26.5226C8.30346 26.5226 8.30161 26.5225 8.29976 26.5225L8.31547 26.0227L8.31072 26.5227C8.30892 26.5227 8.30712 26.5227 8.30532 26.5226ZM22.0118 33.4802L21.9953 33.4791H21.9788H8.02355C5.57477 33.4791 3.71555 32.7607 2.467 31.4784C1.21661 30.1943 0.514407 28.2788 0.514407 25.7579V8.2163V8.19137L0.511927 8.16656C0.408949 7.13655 0.531559 6.0962 0.870688 5.12083C1.20981 4.14548 1.75679 3.25995 2.47145 2.52789C3.18608 1.79586 4.05048 1.23557 5.00186 0.886794C5.95322 0.538034 6.96829 0.409287 7.97392 0.509613L7.99867 0.512083H8.02355H21.9808C24.4263 0.512083 26.285 1.22889 27.5337 2.50841C28.784 3.78965 29.487 5.70089 29.487 8.2163V25.7629V25.7785L29.488 25.7941C29.5528 26.8332 29.4135 27.8749 29.0784 28.858C28.7458 29.8334 28.2273 30.7312 27.5532 31.4997C26.8093 32.1904 25.9376 32.7213 24.9899 33.0616C24.0348 33.4046 23.0218 33.5469 22.0118 33.4802ZM7.83996 23.3436V23.4342C7.95969 23.3854 8.08559 23.355 8.21358 23.3436C8.24742 23.3406 8.28141 23.3389 8.31547 23.3386H7.83996V23.3436ZM8.47298 7.40352L7.97319 7.40372V7.49244C7.68216 7.57793 7.41495 7.73733 7.19834 7.9583C6.86229 8.30111 6.67523 8.76396 6.67523 9.24456C6.67523 9.72516 6.86229 10.188 7.19834 10.5308C7.53471 10.874 7.99308 11.0686 8.47319 11.0686H13.4515C13.934 11.0686 14.3948 10.873 14.7329 10.5281C15.0707 10.1835 15.2587 9.7182 15.2587 9.23508C15.2587 8.75196 15.0707 8.28668 14.7329 7.9421C14.3948 7.59717 13.934 7.40152 13.4515 7.40152H13.4513L8.47298 7.40352ZM8.47963 15.0981C8.24032 15.0924 8.00246 15.1352 7.77993 15.2238C7.55507 15.3133 7.35076 15.4477 7.17881 15.6183C7.00687 15.789 6.87076 15.9925 6.778 16.2166C6.68525 16.4406 6.63758 16.681 6.63758 16.9237C6.63758 17.1663 6.68525 17.4067 6.778 17.6307C6.87076 17.8548 7.00688 18.0583 7.17881 18.229C7.35076 18.3996 7.55507 18.534 7.77993 18.6235C8.00245 18.7121 8.24029 18.7549 8.47959 18.7492H21.5208C21.7601 18.7549 21.998 18.7121 22.2205 18.6235C22.4453 18.534 22.6496 18.3996 22.8216 18.229C22.9935 18.0583 23.1297 17.8548 23.2224 17.6307C23.3152 17.4067 23.3628 17.1663 23.3628 16.9237C23.3628 16.681 23.3152 16.4406 23.2224 16.2166C23.1297 15.9925 22.9935 15.789 22.8216 15.6183C22.6496 15.4476 22.4453 15.3133 22.2205 15.2238C21.9979 15.1352 21.7601 15.0924 21.5208 15.0981H8.47963Z" fill="#1B69FF" stroke="black"/>
</g>
<defs>
<filter id="filter0_d_1_1466" x="-4.02344" y="-0.0234375" width="38.0269" height="42.0197" filterUnits="userSpaceOnUse" color-interpolation-filters="sRGB">
<feFlood flood-opacity="0" result="BackgroundImageFix"/>
<feColorMatrix in="SourceAlpha" type="matrix" values="0 0 0 0 0 0 0 0 0 0 0 0 0 0 0 0 0 0 127 0" result="hardAlpha"/>
<feOffset dy="4"/>
<feGaussianBlur stdDeviation="2"/>
<feComposite in2="hardAlpha" operator="out"/>
<feColorMatrix type="matrix" values="0 0 0 0 0 0 0 0 0 0 0 0 0 0 0 0 0 0 0.25 0"/>
<feBlend mode="normal" in2="BackgroundImageFix" result="effect1_dropShadow_1_1466"/>
<feBlend mode="normal" in="SourceGraphic" in2="effect1_dropShadow_1_1466" result="shape"/>
</filter>
</defs>
</svg>
