<svg width="39" height="39" viewBox="0 0 39 39" fill="none" xmlns="http://www.w3.org/2000/svg">
<g clip-path="url(#clip0_1_1486)">
<path d="M19.4983 11.3931C16.7684 11.3931 14.0997 12.2026 11.8299 13.7192C9.56001 15.2359 7.79084 17.3915 6.7461 19.9136C5.70136 22.4357 5.42796 25.211 5.96047 27.8885C6.49298 30.566 7.80748 33.0254 9.73776 34.9558C11.668 36.8863 14.1274 38.201 16.8048 38.7337C19.4823 39.2664 22.2576 38.9931 24.7798 37.9486C27.3019 36.904 29.4577 35.135 30.9746 32.8653C32.4914 30.5955 33.3011 27.9269 33.3012 25.197C33.2973 21.5374 31.8419 18.0287 29.2542 15.4408C26.6665 12.853 23.1579 11.3973 19.4983 11.3931ZM25.9233 32.2863H25.8828C25.5868 32.286 25.3025 32.1708 25.0897 31.965C24.877 31.7593 24.7523 31.479 24.7421 31.1832L24.7233 30.6168C23.2357 31.8219 21.4107 32.5354 19.5003 32.659C19.294 32.6735 19.0871 32.6807 18.8795 32.6807C17.6591 32.6829 16.4503 32.444 15.3225 31.9775C14.1948 31.511 13.1704 30.8262 12.3082 29.9624C12.1051 29.746 11.9942 29.4591 11.999 29.1624C12.0037 28.8657 12.1237 28.5824 12.3335 28.3726C12.5433 28.1628 12.8266 28.0428 13.1233 28.0381C13.42 28.0333 13.7069 28.1442 13.9233 28.3473C14.5728 28.9999 15.3452 29.5174 16.1959 29.8696C17.0466 30.2218 17.9588 30.4019 18.8795 30.3993C19.0884 30.3993 19.2953 30.3901 19.5003 30.3716C20.7604 30.2632 21.967 29.8123 22.9896 29.0679L22.6129 29.055C22.3149 29.0428 22.0335 28.9145 21.8287 28.6976C21.624 28.4806 21.5122 28.1923 21.5172 27.894C21.5223 27.5958 21.6437 27.3113 21.8557 27.1014C22.0676 26.8915 22.3532 26.7728 22.6515 26.7707H22.691L25.8156 26.8784C26.1015 26.89 26.3729 27.0079 26.5765 27.209C26.7801 27.4101 26.9015 27.6799 26.9167 27.9657C26.9167 27.9716 26.9167 27.9776 26.9167 27.9835L27.0245 31.108C27.0346 31.4108 26.9241 31.7052 26.7172 31.9265C26.5104 32.1478 26.2241 32.278 25.9213 32.2883L25.9233 32.2863ZM26.6923 22.0458C26.478 22.2596 26.1875 22.3796 25.8848 22.3796C25.582 22.3796 25.2916 22.2596 25.0772 22.0458C23.8976 20.8692 22.3379 20.1506 20.6771 20.0186C19.0162 19.8866 17.3626 20.3497 16.012 21.3252L16.3876 21.338C16.6856 21.3502 16.9671 21.4785 17.1718 21.6955C17.3765 21.9124 17.4883 22.2008 17.4833 22.499C17.4782 22.7973 17.3568 23.0817 17.1449 23.2916C16.9329 23.5015 16.6473 23.6202 16.349 23.6224H16.3095L13.1849 23.5146C12.8989 23.5032 12.6275 23.3854 12.4238 23.1843C12.2201 22.9831 12.0988 22.7132 12.0838 22.4273C12.0838 22.4214 12.0838 22.4155 12.0838 22.4095L11.976 19.286C11.9656 18.983 12.0758 18.6884 12.2826 18.4668C12.4894 18.2451 12.7758 18.1147 13.0787 18.1043C13.3816 18.0938 13.6763 18.204 13.8979 18.4108C14.1195 18.6176 14.2499 18.904 14.2604 19.2069L14.2792 19.7733C16.0655 18.3332 18.3207 17.6035 20.612 17.7243C22.9033 17.8451 25.0693 18.8078 26.6943 20.4277C26.8005 20.5338 26.8846 20.6597 26.9421 20.7984C26.9995 20.937 27.0291 21.0856 27.0291 21.2357C27.0291 21.3858 26.9995 21.5344 26.9421 21.6731C26.8846 21.8117 26.8005 21.9377 26.6943 22.0438L26.6923 22.0458Z" fill="#1B69FF"/>
<path d="M30.6842 8.34267C29.7944 7.11922 28.6281 6.12335 27.2803 5.43624C25.9326 4.74913 24.4415 4.39023 22.9287 4.3888C21.7583 4.37578 20.5957 4.58127 19.5007 4.99473C18.9962 3.53726 18.0503 2.27312 16.7943 1.378C15.5384 0.482877 14.0347 0.00123339 12.4924 1.87957e-06C11.3997 -0.000769812 10.3199 0.236092 9.32789 0.694169C8.33584 1.15225 7.45527 1.82058 6.74721 2.65285C6.03916 3.48511 5.52057 4.4614 5.22738 5.51403C4.93419 6.56667 4.87342 7.67047 5.04928 8.74893C3.88928 9.15427 2.84772 9.8406 2.01765 10.7466C1.25329 11.574 0.682398 12.561 0.346272 13.6361C0.0101452 14.7112 -0.0828094 15.8475 0.0741323 16.963C0.231074 18.0784 0.633988 19.145 1.25373 20.0856C1.87346 21.0262 2.69453 21.8173 3.65752 22.4016C4.31461 18.6767 6.26304 15.3024 9.16064 12.8712C12.0582 10.44 15.7197 9.10744 19.5022 9.10744C23.2846 9.10744 26.9461 10.44 29.8437 12.8712C32.7413 15.3024 34.6897 18.6767 35.3468 22.4016C36.816 21.5084 37.9388 20.1433 38.5318 18.5294C39.1248 16.9155 39.153 15.1482 38.6118 13.5162C38.0705 11.8842 36.9919 10.484 35.5519 9.54428C34.112 8.6046 32.396 8.18099 30.6842 8.34267Z" fill="#1B69FF"/>
</g>
<defs>
<clipPath id="clip0_1_1486">
<rect width="39" height="39" fill="white"/>
</clipPath>
</defs>
</svg>
