<svg width="32" height="32" viewBox="0 0 32 32" fill="none" xmlns="http://www.w3.org/2000/svg">
<path d="M26.946 9.94341e-08H5.06294C3.72181 -0.000265534 2.43538 0.531699 1.48612 1.47909C0.536865 2.42648 0.0023718 3.71186 0 5.053V26.946C0.0023724 28.2878 0.537412 29.5738 1.48753 30.5213C2.43765 31.4688 3.7251 32.0003 5.06692 31.999H26.95C28.2896 31.9974 29.574 31.4645 30.5212 30.5173C31.4685 29.57 32.0014 28.2857 32.003 26.946V5.053C32.0014 3.71265 31.468 2.42772 30.5198 1.48033C29.5717 0.532936 28.2864 0.000526239 26.946 9.94341e-08ZM24.2703 15.7727L18.0665 20.8884C17.8727 21.0506 17.6361 21.1532 17.3853 21.1839C17.1345 21.2146 16.8802 21.1721 16.653 21.0615C16.424 20.955 16.2298 20.7858 16.093 20.5735C15.9562 20.3612 15.8824 20.1144 15.8801 19.8619V18.0615C14.5783 18.2969 13.3648 18.8813 12.3692 19.7525C11.3737 20.6237 10.6333 21.7489 10.2273 23.0081C10.1631 23.2092 10.037 23.3848 9.86688 23.5099C9.6968 23.6349 9.49152 23.703 9.28041 23.7043C9.06986 23.7034 8.86472 23.6376 8.69295 23.5158C8.52117 23.3941 8.39112 23.2223 8.32053 23.024C7.90035 21.7262 7.76819 20.3524 7.93326 18.9984C8.09832 17.6443 8.55664 16.3425 9.27628 15.1837C9.99592 14.0249 10.9596 13.0369 12.1001 12.2886C13.2406 11.5404 14.5306 11.0498 15.8801 10.851V9.6375C15.882 9.38306 15.9555 9.13429 16.0922 8.91967C16.2289 8.70505 16.4232 8.53326 16.653 8.42398C16.8821 8.31812 17.1366 8.2795 17.3868 8.31261C17.6371 8.34571 17.8727 8.44918 18.0665 8.61098L24.2703 13.7197C24.4249 13.8425 24.5499 13.9986 24.636 14.1763C24.7221 14.354 24.7671 14.5487 24.7676 14.7462C24.7688 14.9439 24.7245 15.1393 24.6383 15.3173C24.5521 15.4952 24.4262 15.651 24.2703 15.7727Z" fill="#1B69FF"/>
</svg>
