<svg width="65" height="75" viewBox="0 0 65 75" fill="none" xmlns="http://www.w3.org/2000/svg">
<mask id="mask0_1_1097" style="mask-type:luminance" maskUnits="userSpaceOnUse" x="0" y="0" width="65" height="75">
<path d="M65 0H0V75H65V0Z" fill="white"/>
</mask>
<g mask="url(#mask0_1_1097)">
<path fill-rule="evenodd" clip-rule="evenodd" d="M64.4374 20.7212L53.2236 14.2979L46.875 15.611L58.0909 22.0343L64.4374 20.7212Z" fill="#035BE8"/>
<path fill-rule="evenodd" clip-rule="evenodd" d="M48.4407 15.8583L58.1837 21.4406L62.8683 20.4676L53.1253 14.8895L48.4407 15.8583ZM58.0882 22.5971C57.9926 22.5971 57.895 22.5682 57.8098 22.5208L46.5939 16.0974C46.3924 15.9779 46.2823 15.7491 46.3197 15.5203C46.3591 15.2914 46.5316 15.11 46.7622 15.0626L53.1045 13.7454C53.2354 13.7207 53.3829 13.7413 53.5033 13.8114L64.7193 20.2347C64.9208 20.3501 65.0267 20.5789 64.9935 20.8078C64.954 21.0366 64.7775 21.2221 64.5511 21.2716L58.2024 22.5847C58.1692 22.595 58.1256 22.5991 58.0861 22.5991L58.0882 22.5971Z" fill="#035BE8"/>
<path fill-rule="evenodd" clip-rule="evenodd" d="M53.7007 6.98192L42.4868 0.558594L36.5704 7.44574L47.7801 13.8732L53.7007 6.98192Z" fill="#035BE8"/>
<path fill-rule="evenodd" clip-rule="evenodd" d="M37.4376 7.29734L47.6564 13.1517L52.8271 7.13036L42.6083 1.2801L37.4376 7.29734ZM47.7769 14.4319C47.6855 14.4319 47.5837 14.4071 47.4985 14.3556L36.2826 7.93225C36.1392 7.85185 36.0374 7.70756 36.0084 7.54058C35.9793 7.37773 36.0271 7.21076 36.133 7.08295L42.0557 0.195806C42.2281 -0.0103347 42.5314 -0.0618697 42.762 0.0762442L53.9779 6.49545C54.1275 6.58203 54.2272 6.72427 54.2563 6.88712C54.2812 7.05409 54.2376 7.22107 54.1254 7.35093L48.209 14.236C48.0989 14.3638 47.9389 14.4319 47.7769 14.4319Z" fill="#035BE8"/>
<path fill-rule="evenodd" clip-rule="evenodd" d="M47.7782 13.8728L36.5685 7.44531L33.2031 7.77926L44.417 14.2026L47.7782 13.8728Z" fill="#035BE8"/>
<path fill-rule="evenodd" clip-rule="evenodd" d="M35.0175 8.16099L44.5487 13.6258L45.9821 13.4835L36.4509 8.02494L35.0175 8.16305V8.16099ZM44.424 14.7657C44.3222 14.7657 44.2267 14.7369 44.1394 14.6895L32.9235 8.262C32.7116 8.14244 32.6015 7.89919 32.6534 7.66007C32.7054 7.42095 32.909 7.24573 33.1499 7.22099L36.5153 6.88705C36.6358 6.87674 36.7563 6.90148 36.8519 6.95919L48.0678 13.3866C48.2838 13.5062 48.3898 13.7536 48.3379 13.9886C48.2859 14.2277 48.0886 14.4091 47.8434 14.4277L44.476 14.7616C44.4614 14.7616 44.4427 14.7657 44.424 14.7657Z" fill="#035BE8"/>
<path fill-rule="evenodd" clip-rule="evenodd" d="M42.3946 8.09519L31.1787 1.67188L22.6094 6.57594L33.8232 12.9993L42.3946 8.09519Z" fill="#EFF3FA"/>
<path fill-rule="evenodd" clip-rule="evenodd" d="M23.7462 6.57581L33.8258 12.356L41.265 8.09506L31.1812 2.31489L23.7462 6.57581ZM33.8258 13.5619C33.724 13.5619 33.6284 13.533 33.5412 13.4856L22.3315 7.0623C22.1528 6.96129 22.0469 6.77576 22.0469 6.57581C22.0469 6.37585 22.1528 6.19033 22.3315 6.08932L30.9008 1.18318C31.069 1.08217 31.2851 1.08217 31.4575 1.18318L42.6734 7.60651C42.8521 7.70752 42.9581 7.89304 42.9581 8.093C42.9581 8.29295 42.8521 8.47436 42.6734 8.57537L34.1041 13.4856C34.0169 13.533 33.9213 13.5619 33.8258 13.5619Z" fill="#035BE8"/>
<path fill-rule="evenodd" clip-rule="evenodd" d="M33.8252 12.9995L22.6114 6.57617L20.5859 15.0052L31.8018 21.4327L33.8252 12.9995Z" fill="#035BE8"/>
<path fill-rule="evenodd" clip-rule="evenodd" d="M21.2394 14.7324L31.429 20.5683L33.1803 13.2771L22.9885 7.43507L21.2394 14.7324ZM31.805 21.9906C31.7095 21.9906 31.6077 21.9659 31.5204 21.9185L20.3045 15.491C20.0885 15.3715 19.9784 15.12 20.0407 14.8747L22.0662 6.44766C22.1098 6.27656 22.2303 6.13226 22.3923 6.06218C22.5502 5.99621 22.7434 6.00446 22.8971 6.09104L34.1068 12.5185C34.3229 12.6422 34.433 12.8916 34.3769 13.1287L32.3535 21.5619C32.3099 21.733 32.1894 21.8773 32.0315 21.9494C31.9588 21.9783 31.8819 21.9927 31.805 21.9927V21.9906Z" fill="#035BE8"/>
<path fill-rule="evenodd" clip-rule="evenodd" d="M31.8001 21.4323L20.5842 15.0049L17.2188 18.5319L28.4326 24.9553L31.8001 21.4323Z" fill="#EFF3FA"/>
<path fill-rule="evenodd" clip-rule="evenodd" d="M18.1247 18.4017L28.3289 24.2479L30.8966 21.5619L20.6861 15.7157L18.1226 18.4017H18.1247ZM28.4349 25.5177C28.3393 25.5177 28.2417 25.4929 28.1503 25.4414L16.9406 19.0181C16.791 18.9315 16.685 18.7851 16.6622 18.612C16.6373 18.445 16.6913 18.2739 16.8118 18.1502L20.1772 14.6232C20.3558 14.4315 20.6446 14.3944 20.871 14.5222L32.0869 20.9455C32.2365 21.0321 32.3362 21.1846 32.3612 21.3516C32.3861 21.5186 32.3321 21.6958 32.2116 21.8154L28.8503 25.3425C28.7402 25.4579 28.5907 25.5197 28.4369 25.5197L28.4349 25.5177Z" fill="#035BE8"/>
<path fill-rule="evenodd" clip-rule="evenodd" d="M28.435 24.9552L17.2211 18.5319L11.3047 18.4268L22.5206 24.8501L28.435 24.9552Z" fill="#035BE8"/>
<path fill-rule="evenodd" clip-rule="evenodd" d="M22.6747 24.2917L26.2582 24.3536L17.0677 19.0908L13.4904 19.0289L22.6747 24.2917ZM28.4374 25.5182H28.427L22.5064 25.4131C22.415 25.409 22.3194 25.3843 22.2363 25.3327L11.0266 18.9094C10.8002 18.7857 10.6943 18.5218 10.7628 18.2745C10.8293 18.0312 11.0557 17.8643 11.3071 17.8643H11.3216L17.236 17.9735C17.3316 17.9735 17.423 18.0024 17.5061 18.0498L28.722 24.4731C28.9422 24.5968 29.0544 24.8586 28.9858 25.108C28.9131 25.3513 28.6929 25.5182 28.4374 25.5182Z" fill="#035BE8"/>
<path fill-rule="evenodd" clip-rule="evenodd" d="M22.5154 24.8501L11.2995 18.4268L5.25 28.8203L16.4701 35.2437L22.5154 24.8501Z" fill="#EFF3FA"/>
<path fill-rule="evenodd" clip-rule="evenodd" d="M6.02235 28.6147L16.2557 34.4794L21.738 25.0547L11.5046 19.19L6.02235 28.6147ZM16.4676 35.8069C16.3658 35.8069 16.2702 35.7822 16.185 35.7307L4.96911 29.3073C4.69904 29.1507 4.60764 28.8105 4.76344 28.5384L10.8129 18.1448C10.8856 18.017 11.0102 17.9201 11.1536 17.8872C11.2969 17.8439 11.4506 17.8624 11.5815 17.9387L22.7974 24.362C23.0613 24.5146 23.1589 24.8588 22.9989 25.1309L16.9537 35.5245C16.8768 35.6544 16.7563 35.7492 16.613 35.7863C16.561 35.7966 16.5112 35.8049 16.4696 35.8049L16.4676 35.8069Z" fill="#035BE8"/>
<path fill-rule="evenodd" clip-rule="evenodd" d="M16.4701 35.2436L5.25 28.8203L8.30795 33.8501L6.90985 38.5027L18.1237 44.9261L19.5198 40.2735L16.4701 35.2436Z" fill="#035BE8"/>
<path fill-rule="evenodd" clip-rule="evenodd" d="M7.57867 38.2391L17.7891 44.0853L18.9089 40.3541L16.0566 35.6583L6.86612 30.3955L8.7898 33.5597C8.87082 33.6937 8.89575 33.8607 8.84797 34.0071L7.57867 38.2391ZM18.1257 45.4891C18.0239 45.4891 17.9283 45.4602 17.8411 45.4128L6.63138 38.9895C6.40494 38.8617 6.29484 38.5937 6.3717 38.3443L7.69501 33.9246L4.77002 29.1092C4.63499 28.8907 4.66823 28.6083 4.85104 28.4269C5.02969 28.2413 5.31222 28.2022 5.5345 28.332L16.7504 34.7554C16.8314 34.8028 16.9042 34.8687 16.9519 34.9553L20.0057 39.981C20.0826 40.1191 20.1075 40.282 20.0639 40.4345L18.6699 45.0871C18.618 45.25 18.4975 45.3819 18.3334 45.4437C18.2711 45.4726 18.1984 45.487 18.1257 45.487V45.4891Z" fill="#035BE8"/>
<path fill-rule="evenodd" clip-rule="evenodd" d="M18.1285 44.9263L6.91472 38.5029L0.570312 44.4583L11.7862 50.8858L18.1285 44.9263Z" fill="#EFF3FA"/>
<path fill-rule="evenodd" clip-rule="evenodd" d="M1.50315 44.3488L11.6929 50.1887L17.1855 45.0352L6.99581 39.1994L1.50315 44.3488ZM11.7801 51.4441C11.6846 51.4441 11.5828 51.4194 11.4955 51.3678L0.281631 44.9445C0.127903 44.8579 0.0219553 44.7013 0.00325865 44.524C-0.015438 44.3467 0.0468842 44.1756 0.175683 44.0519L6.52424 38.0965C6.70705 37.9254 6.97504 37.8966 7.19317 38.0203L18.4091 44.4395C18.5628 44.5302 18.6688 44.6868 18.6833 44.8641C18.7083 45.0352 18.6459 45.2166 18.5151 45.3362L12.1665 51.2916C12.0606 51.3926 11.9214 51.4441 11.7822 51.4441H11.7801Z" fill="#035BE8"/>
<path fill-rule="evenodd" clip-rule="evenodd" d="M11.7862 50.8855L0.570312 44.458V54.2785L7.51093 58.2529L5.25487 64.5464L16.4749 70.9697L19.5245 62.4417L18.1306 59.3826L11.7883 55.7462V50.8834L11.7862 50.8855Z" fill="#035BE8"/>
<path fill-rule="evenodd" clip-rule="evenodd" d="M5.94554 64.2954L16.1644 70.1518L18.9107 62.4731L17.6892 59.7871L11.5006 56.2374C11.3281 56.1425 11.218 55.957 11.218 55.7509V51.2075L1.13218 45.4336V53.9575L7.79235 57.7711C8.0271 57.905 8.13305 58.1916 8.04164 58.4431L5.94554 64.2995V64.2954ZM16.4718 71.535C16.37 71.535 16.2745 71.5062 16.1893 71.4588L4.97331 65.0354C4.73856 64.8973 4.63261 64.6149 4.72402 64.3572L6.81597 58.507L0.284605 54.7614C0.11218 54.6604 0 54.479 0 54.279V44.4585C0 44.2627 0.110102 44.073 0.284605 43.9761C0.463262 43.8751 0.67308 43.8751 0.847582 43.9761L12.0677 50.3995C12.2401 50.5005 12.3461 50.686 12.3461 50.886V55.4293L18.41 58.9028C18.5118 58.9605 18.5928 59.0512 18.6406 59.1563L20.0346 62.2154C20.0927 62.3432 20.101 62.4958 20.0533 62.6298L16.9995 71.1619C16.9475 71.3145 16.8208 71.4381 16.6629 71.4959C16.6006 71.5206 16.5341 71.535 16.4697 71.535H16.4718Z" fill="#035BE8"/>
<path fill-rule="evenodd" clip-rule="evenodd" d="M31.8018 67.2204L20.5859 60.793L22.6114 66.9071L33.8252 73.3304L31.8018 67.2204Z" fill="#035BE8"/>
<path fill-rule="evenodd" clip-rule="evenodd" d="M23.0786 66.5298L32.8217 72.108L31.3259 67.5977L21.5829 62.0133L23.0786 66.5278V66.5298ZM33.823 73.8932C33.7212 73.8932 33.6256 73.8643 33.5384 73.8169L22.3287 67.3894C22.204 67.3235 22.1168 67.2122 22.069 67.0844L20.0435 60.9702C19.9708 60.7517 20.0435 60.5085 20.2264 60.3601C20.4092 60.2178 20.6585 60.1931 20.8662 60.3127L32.0821 66.736C32.2026 66.8019 32.294 66.9174 32.3376 67.0452L34.3569 73.1531C34.4337 73.3778 34.361 73.6169 34.1782 73.7633C34.0723 73.8499 33.9476 73.8932 33.823 73.8932Z" fill="#035BE8"/>
<path fill-rule="evenodd" clip-rule="evenodd" d="M34.2784 47.2882L23.0625 40.8649C23.7356 41.2132 24.3422 41.2998 25.1025 41.1658C27.5704 40.7412 29.7725 38.2366 30.913 36.1401C31.9704 34.188 32.8554 31.2051 31.9081 29.0778C31.6339 28.4635 31.2828 28.0615 30.7198 27.709L41.9357 34.1323C44.0131 35.3836 43.6579 38.5602 43.0181 40.5124C42.1289 43.219 39.8542 46.4162 37.0746 47.3933C36.2415 47.684 35.3005 47.7706 34.482 47.3933L34.2805 47.2882H34.2784Z" fill="#035BE8"/>
<path fill-rule="evenodd" clip-rule="evenodd" d="M34.5549 46.8L34.7419 46.8949C35.4689 47.2288 36.3103 47.0618 36.8878 46.8619C39.4472 45.9652 41.6388 42.8957 42.4802 40.3334C43.1429 38.3235 43.3174 35.619 41.643 34.6068L32.6499 29.4575C33.3043 31.6817 32.4775 34.444 31.4097 36.4003C30.29 38.4678 28.1149 41.0157 25.5576 41.6403L34.5549 46.798V46.8ZM35.6808 48.208C35.2197 48.208 34.7232 48.1214 34.2433 47.9029L34.0231 47.7895C34.0231 47.7895 34.0085 47.7792 33.9981 47.7751L22.7822 41.3517C22.5184 41.1992 22.4208 40.8653 22.5703 40.5973C22.7199 40.3252 23.0564 40.2262 23.3307 40.3685C23.8791 40.655 24.3694 40.721 25.0092 40.6158C27.1697 40.2448 29.2804 37.9628 30.4188 35.8725C31.4055 34.0503 32.2552 31.2385 31.3952 29.3008C31.1687 28.7957 30.8945 28.4803 30.4188 28.1794C30.1591 28.0165 30.0781 27.6743 30.2401 27.4167C30.398 27.1549 30.7408 27.0724 31.0046 27.2208L42.2143 33.6442C44.4703 34.9985 44.3831 38.1689 43.5563 40.6839C42.6526 43.4235 40.301 46.8536 37.2617 47.9235C36.8296 48.0719 36.275 48.21 35.6788 48.21L35.6808 48.208Z" fill="#035BE8"/>
<path fill-rule="evenodd" clip-rule="evenodd" d="M41.9385 42.9065C39.8216 46.5387 36.3939 48.4991 34.2833 47.287C32.1726 46.0749 32.1726 42.1479 34.2833 38.5157C36.3939 34.8835 39.8237 32.919 41.9385 34.1311C44.0492 35.3432 44.0492 39.2702 41.9385 42.9065ZM56.6985 41.146L58.0883 36.4935L64.4368 30.5381V20.7217L58.0883 22.0348L56.6985 18.9757L59.7481 10.4476C57.7331 9.29325 55.718 8.13681 53.7029 6.98242L47.7823 13.8737L44.421 14.2035L42.3976 8.09558C39.5412 9.73233 36.6785 11.365 33.8283 13.0017L31.8029 21.4349L28.4375 24.9578L22.521 24.8527C20.5018 28.3179 18.4867 31.7811 16.4757 35.2463L19.5254 40.2761L18.1314 44.9287L11.7891 50.8882V60.7005L18.1314 59.3874L19.5254 62.4465L16.4757 70.9745C18.4867 72.1289 20.5059 73.2833 22.521 74.4398L28.4375 67.5526L31.8029 67.2228L33.8283 73.3307C36.6806 71.694 39.5412 70.0572 42.3976 68.4205L44.421 59.9934L47.7823 56.4664L53.7029 56.5756C55.718 53.1063 57.7331 49.6473 59.7481 46.1779L56.6985 41.1481V41.146Z" fill="#EFF3FA"/>
<path fill-rule="evenodd" clip-rule="evenodd" d="M40.5268 34.3302C39.887 34.3302 39.1619 34.5549 38.3953 34.994C37.0306 35.7732 35.7467 37.1276 34.7745 38.7973C33.798 40.467 33.2642 42.2522 33.2642 43.8086C33.2642 45.2598 33.7253 46.3235 34.5666 46.8058C35.4038 47.282 36.5631 47.1501 37.8262 46.4245C39.1869 45.6473 40.4769 44.2971 41.4471 42.6253C43.3666 39.3229 43.4622 35.6536 41.6528 34.6168C41.3204 34.425 40.9401 34.3302 40.5226 34.3302H40.5268ZM35.6927 48.2076C35.0819 48.2076 34.5107 48.0654 33.9996 47.7726C32.7968 47.0862 32.1279 45.6782 32.1279 43.8065C32.1279 42.0543 32.7198 40.0754 33.7918 38.2325C34.8637 36.3896 36.2972 34.8971 37.8262 34.019C39.457 33.0872 41.0149 32.9553 42.2177 33.6417C44.6421 35.0311 44.7335 39.2199 42.4234 43.1819C41.3556 45.0248 39.9223 46.5172 38.3933 47.3954C37.4502 47.9334 36.5319 48.2055 35.6905 48.2055L35.6927 48.2076ZM17.1622 70.7181L20.0561 62.6292C20.1038 62.4952 20.0954 62.3426 20.0373 62.2148L18.6434 59.1557C18.5375 58.9166 18.2778 58.7785 18.014 58.8403L12.3489 60.0091V51.1245L18.5188 45.3361C18.5915 45.2701 18.6434 45.1835 18.6725 45.0887L20.0664 40.4361C20.1101 40.2836 20.0851 40.1207 20.0083 39.9826L17.1269 35.2393L22.8398 25.4188L28.4239 25.5198H28.4342C28.5879 25.5198 28.7374 25.458 28.8475 25.3425L32.2088 21.8155C32.2753 21.7495 32.3231 21.6588 32.3481 21.5619L34.3154 13.3678L42.0724 8.9255L43.8798 14.3759C43.9608 14.6294 44.2079 14.7902 44.4717 14.7613L47.8392 14.4274C47.9825 14.4171 48.1176 14.347 48.2132 14.2357L53.8263 7.70309L59.0593 10.7004L56.1635 18.7893C56.1157 18.9274 56.1197 19.0759 56.1779 19.2098L57.572 22.269C57.6821 22.5081 57.9333 22.64 58.2013 22.5844L63.8664 21.4155V30.2961L57.7008 36.0886C57.628 36.1546 57.5699 36.2411 57.547 36.336L56.1531 40.9886C56.1053 41.1411 56.1282 41.304 56.2113 41.4379L59.0905 46.1854L53.3776 56.0059L47.7935 55.9007C47.5816 55.9049 47.482 55.9626 47.3698 56.078L44.0023 59.6051C43.9399 59.6772 43.886 59.7618 43.8631 59.8586L41.8958 68.0568L34.1388 72.4992L32.3356 67.0447C32.2484 66.7973 31.9991 66.62 31.7394 66.6633L28.3782 66.9931C28.2286 67.0076 28.0935 67.0735 28.0021 67.189L22.3911 73.7174L17.1581 70.7202L17.1622 70.7181ZM22.5198 74.9996C22.4242 74.9996 22.3267 74.9708 22.2353 74.9234L16.19 71.4581C15.9553 71.32 15.8431 71.0376 15.9406 70.7861L18.9135 62.4725L17.802 60.0297L11.9022 61.2521C11.7444 61.2851 11.5615 61.2418 11.4307 61.1367C11.2956 61.0316 11.2188 60.8687 11.2188 60.6976V50.8853C11.2188 50.7287 11.2852 50.5844 11.3974 50.4751L17.6296 44.6249L18.9135 40.3536L15.9843 35.5341C15.8784 35.3568 15.8784 35.1424 15.9843 34.961L22.0296 24.5674C22.1314 24.3963 22.3183 24.285 22.5198 24.285H22.5301L28.1952 24.3901L31.2865 21.1537L33.2725 12.869C33.3099 12.7205 33.4076 12.5927 33.5426 12.5165L42.1118 7.60621C42.2551 7.51963 42.438 7.5052 42.598 7.56704C42.7517 7.62888 42.8825 7.75875 42.9303 7.91542L44.8146 13.5987L47.5027 13.3307L53.2696 6.61673C53.4483 6.41059 53.7495 6.35906 53.98 6.49305L60.0294 9.96239C60.2642 10.0964 60.3701 10.3767 60.2787 10.6344L57.3018 18.948L58.4174 21.3908L64.3194 20.1684C64.4835 20.1292 64.6601 20.1725 64.7909 20.2818C64.926 20.3869 65.0028 20.5498 65.0028 20.7167V30.5331C65.0028 30.6857 64.9364 30.8341 64.82 30.9392L58.5878 36.7957L57.3081 41.0669L60.2309 45.8864C60.3369 46.0637 60.337 46.2781 60.2352 46.4554L54.1858 56.8531C54.084 57.0304 53.9592 57.1396 53.6892 57.1355L48.02 57.0304L44.933 60.2668L42.9429 68.5474C42.9034 68.7 42.8078 68.8299 42.6728 68.9041L34.1034 73.8143C33.96 73.8947 33.7773 73.9092 33.6215 73.8535C33.4636 73.7917 33.3369 73.6618 33.285 73.5051L31.4049 67.8218L28.7168 68.0836L22.9457 74.8038C22.8356 74.9275 22.6756 74.9996 22.5177 74.9996H22.5198Z" fill="#035BE8"/>
<path fill-rule="evenodd" clip-rule="evenodd" d="M41.935 42.906C39.8181 46.5382 36.3904 48.4986 34.2798 47.2865C32.1691 46.0744 32.1691 42.1474 34.2798 38.5152C36.3904 34.883 39.8202 32.9185 41.935 34.1306C44.0457 35.3427 44.0457 39.2697 41.935 42.906ZM48.8071 46.8433C54.7235 36.6826 54.7235 25.6974 48.8071 22.3147C42.8969 18.9257 33.3117 24.4194 27.4015 34.58C21.4912 44.7407 21.4912 55.7197 27.4015 59.1086C33.3117 62.4976 42.8969 57.0039 48.8071 46.8433Z" fill="white"/>
<path fill-rule="evenodd" clip-rule="evenodd" d="M40.5215 34.3305C39.8816 34.3305 39.1566 34.5552 38.3901 34.9943C37.0252 35.7735 35.7414 37.1278 34.7691 38.7976C33.7928 40.4673 33.2589 42.2525 33.2589 43.8088C33.2589 45.2601 33.72 46.3237 34.5614 46.8061C35.3986 47.2823 36.5578 47.1504 37.8208 46.4248C39.1815 45.6476 40.4716 44.2974 41.4418 42.6256C43.3613 39.3232 43.4569 35.6539 41.6474 34.617C41.315 34.4253 40.9349 34.3305 40.5173 34.3305H40.5215ZM35.6873 48.2079C35.0766 48.2079 34.5053 48.0656 33.9943 47.7729C32.7914 47.0865 32.1225 45.6785 32.1225 43.8068C32.1225 42.0546 32.7146 40.0756 33.7865 38.2327C34.8585 36.3898 36.2919 34.8974 37.8208 34.0192C39.4516 33.0875 41.0097 32.9556 42.2125 33.642C44.6368 35.0314 44.7282 39.2202 42.4181 43.1822C41.3504 45.0251 39.9169 46.5175 38.388 47.3957C37.4448 47.9337 36.5266 48.2058 35.6853 48.2058L35.6873 48.2079ZM44.8487 21.8652C46.1803 21.8652 47.4226 22.1662 48.5278 22.8011C51.2014 24.3327 52.6785 27.6165 52.6785 32.0403C52.6785 36.4641 51.1308 41.733 48.3221 46.5629C42.576 56.437 33.317 61.8482 27.6852 58.6221C22.0533 55.396 22.1447 44.7344 27.8929 34.8623C32.5089 26.9218 39.4018 21.8673 44.8487 21.8673V21.8652ZM31.2916 60.6526C29.7854 60.6526 28.377 60.3083 27.118 59.593C20.9481 56.0515 20.8567 44.7097 26.9103 34.2955C32.9701 23.8833 42.925 18.2887 49.0908 21.826C52.1363 23.5679 53.8086 27.1939 53.8086 32.0382C53.8086 36.8825 52.2069 42.1267 49.2985 47.1236C44.4748 55.4125 37.1789 60.6526 31.2936 60.6526H31.2916Z" fill="#035BE8"/>
<path fill-rule="evenodd" clip-rule="evenodd" d="M41.9333 42.9061C44.0439 39.2697 44.0439 35.3428 41.9333 34.1307C39.8164 32.9186 36.3888 34.8851 34.2782 38.5153C32.1675 42.1475 32.1675 46.0744 34.2782 47.2865C36.3888 48.4986 39.8185 46.5382 41.9333 42.9061ZM29.9778 36.0539C34.465 28.3422 41.7463 24.172 46.2335 26.7385C50.7207 29.3111 50.7207 37.6515 46.2335 45.3694C41.7463 53.0811 34.465 57.2514 29.9778 54.6808C25.4865 52.1082 25.4865 43.7657 29.9778 36.056V36.0539Z" fill="#EFF3FA"/>
<path fill-rule="evenodd" clip-rule="evenodd" d="M40.5244 34.3307C39.8845 34.3307 39.1595 34.5554 38.393 34.9945C37.0281 35.7737 35.7443 37.128 34.772 38.7977C33.7956 40.4675 33.2618 42.2527 33.2618 43.809C33.2618 45.2602 33.7229 46.3239 34.5643 46.8063C35.4015 47.2825 36.5607 47.1505 37.8237 46.4249C39.1844 45.6478 40.4745 44.2976 41.4447 42.6258C43.3642 39.3234 43.4597 35.6541 41.6503 34.6172C41.3179 34.4255 40.9378 34.3307 40.5202 34.3307H40.5244ZM35.6902 48.208C35.0795 48.208 34.5082 48.0658 33.9972 47.7731C32.7943 47.0866 32.1254 45.6787 32.1254 43.8069C32.1254 42.0548 32.7175 40.0758 33.7894 38.2329C34.8614 36.39 36.2948 34.8976 37.8237 34.0194C39.4545 33.0877 41.0126 32.9557 42.2154 33.6422C44.6397 35.0316 44.7311 39.2203 42.4209 43.1823C41.3532 45.0252 39.9198 46.5177 38.3909 47.3958C37.4477 47.9339 36.5295 48.206 35.6882 48.206L35.6902 48.208ZM43.2208 26.5345C44.2076 26.5345 45.1341 26.7591 45.9526 27.2271C50.1656 29.641 50.0701 37.6537 45.7449 45.0891C41.4177 52.5246 34.4729 56.6083 30.2599 54.1944C28.2739 53.0544 27.177 50.6055 27.177 47.2948C27.177 43.9842 28.3466 39.983 30.4676 36.3385C33.9535 30.3542 39.1346 26.5365 43.2208 26.5365V26.5345ZM32.9251 55.9878C31.7618 55.9878 30.6692 55.7198 29.6969 55.1673C27.3411 53.8171 26.0469 51.026 26.0469 47.2928C26.0469 43.5596 27.2684 39.5914 29.4913 35.7737C34.128 27.8043 41.775 23.5372 46.5198 26.2582C51.2666 28.9772 51.3621 37.6784 46.7274 45.6478C43.0379 51.9907 37.4497 55.9898 32.9251 55.9898V55.9878Z" fill="#035BE8"/>
<path fill-rule="evenodd" clip-rule="evenodd" d="M11.7801 61.2606C11.6845 61.2606 11.589 61.2358 11.4955 61.1884L0.28161 54.7651C0.0115476 54.6084 -0.0798584 54.2642 0.0759472 53.9962C0.229675 53.7241 0.580757 53.6375 0.844588 53.7921L12.0647 60.2154C12.3348 60.368 12.4262 60.7122 12.2662 60.9781C12.1644 61.1595 11.9733 61.2606 11.7801 61.2606Z" fill="#035BE8"/>
<path fill-rule="evenodd" clip-rule="evenodd" d="M19.5286 40.836C19.4331 40.836 19.3354 40.8113 19.244 40.7598L8.03438 34.3364C7.76016 34.1798 7.66875 33.8396 7.82871 33.5675C7.98244 33.2995 8.32937 33.2088 8.59735 33.3634L19.8132 39.7868C20.0833 39.9434 20.1726 40.2877 20.0147 40.5557C19.913 40.7371 19.726 40.8381 19.5286 40.8381V40.836Z" fill="#035BE8"/>
</g>
</svg>
