<svg width="40" height="32" viewBox="0 0 40 32" fill="none" xmlns="http://www.w3.org/2000/svg">
<path d="M26.55 31.9987C26.192 32.0078 25.8448 31.8786 25.5837 31.6392C25.3227 31.3998 25.1689 31.0695 25.1557 30.72C25.1425 30.3705 25.2711 30.03 25.5134 29.7725C25.7557 29.515 26.0923 29.3613 26.45 29.3446H29.45C30.6272 29.3555 31.7606 28.9096 32.6012 28.1049C33.4418 27.3001 33.9209 26.2024 33.933 25.0529V18.7242H29.157V20.4877C29.1557 21.5568 28.7197 22.5817 27.9449 23.337C27.1701 24.0923 26.1198 24.5163 25.025 24.5158H14.968C13.8734 24.5158 12.8236 24.0916 12.0491 23.3364C11.2745 22.5811 10.8386 21.5566 10.837 20.4877V18.7242H6.062V25.0656C6.07651 26.2103 6.55456 27.3028 7.39163 28.1043C8.2287 28.9058 9.3567 29.351 10.529 29.3427H13.493C13.851 29.3336 14.1982 29.4628 14.4593 29.7022C14.7203 29.9416 14.8741 30.2719 14.8873 30.6214C14.9005 30.9709 14.7719 31.3114 14.5296 31.5689C14.2873 31.8264 13.9507 31.9801 13.593 31.9968C13.5597 31.9986 13.5263 31.9986 13.493 31.9968H10.533C8.63318 32.0106 6.80515 31.2888 5.44914 29.9893C4.09314 28.6899 3.31964 26.9187 3.298 25.0636V18.7261H1.358C0.997836 18.7261 0.652423 18.5864 0.397749 18.3377C0.143075 18.089 0 17.7517 0 17.4C0 17.0483 0.143075 16.711 0.397749 16.4623C0.652423 16.2137 0.997836 16.0739 1.358 16.0739H38.633C38.9932 16.0739 39.3386 16.2137 39.5933 16.4623C39.8479 16.711 39.991 17.0483 39.991 17.4C39.991 17.7517 39.8479 18.089 39.5933 18.3377C39.3386 18.5864 38.9932 18.7261 38.633 18.7261H36.702V25.0548C36.6814 26.914 35.9064 28.6892 34.547 29.991C33.1876 31.2928 31.3549 32.0149 29.451 31.9987H26.55ZM11.333 13.3739C11.204 13.3705 11.0811 13.319 10.9897 13.2301C10.8982 13.1411 10.845 13.0214 10.841 12.8954V10.6807C10.8431 9.6122 11.2793 8.58815 12.0538 7.83333C12.8282 7.07851 13.8778 6.65459 14.972 6.65459H25.026C25.5665 6.65253 26.1022 6.75446 26.6023 6.95455C27.1025 7.15464 27.5575 7.44897 27.9411 7.82075C28.3248 8.19252 28.6298 8.63446 28.8386 9.12132C29.0474 9.60818 29.1559 10.1304 29.158 10.6582V12.9042C29.1534 13.0314 29.0989 13.1519 29.0059 13.241C28.9128 13.33 28.7883 13.3808 28.658 13.3827L11.333 13.3739ZM33.933 10.2491V6.94753C33.9195 5.79915 33.4405 4.7028 32.6007 3.89871C31.761 3.09463 30.6291 2.64838 29.453 2.65776H26.553C26.1926 2.65776 25.8469 2.51795 25.592 2.26907C25.3372 2.0202 25.194 1.68265 25.194 1.33069C25.194 0.978731 25.3372 0.641191 25.592 0.392318C25.8469 0.143445 26.1926 0.00362269 26.553 0.00362269H29.453C31.357 -0.0127795 33.1899 0.709192 34.5493 2.01106C35.9087 3.31293 36.6837 5.08831 36.704 6.94753V10.2491C36.704 10.6079 36.558 10.952 36.2982 11.2058C36.0384 11.4595 35.686 11.602 35.3185 11.602C34.951 11.602 34.5986 11.4595 34.3388 11.2058C34.079 10.952 33.933 10.6079 33.933 10.2491ZM3.293 10.2491V6.92898C3.3149 5.07344 4.08889 3.30198 5.44549 2.00251C6.80209 0.703049 8.63074 -0.0185171 10.531 -0.00418504H13.498C13.8584 -0.00418504 14.2041 0.135629 14.459 0.384503C14.7138 0.633376 14.857 0.970923 14.857 1.32288C14.857 1.67484 14.7138 2.01238 14.459 2.26126C14.2041 2.51013 13.8584 2.64994 13.498 2.64994H10.533C9.36009 2.64134 8.23143 3.0867 7.39393 3.88861C6.55642 4.69052 6.07824 5.78369 6.064 6.92898V10.2393C6.064 10.4172 6.02812 10.5933 5.95842 10.7576C5.88872 10.922 5.78655 11.0713 5.65776 11.197C5.52896 11.3228 5.37606 11.4226 5.20778 11.4906C5.0395 11.5587 4.85914 11.5937 4.677 11.5937C4.49486 11.5937 4.3145 11.5587 4.14622 11.4906C3.97794 11.4226 3.82504 11.3228 3.69624 11.197C3.56745 11.0713 3.46528 10.922 3.39558 10.7576C3.32588 10.5933 3.29 10.4172 3.29 10.2393L3.293 10.2491Z" fill="#1B69FF"/>
</svg>
